<?xml version="1.0" encoding="utf-8" ?>
<svg baseProfile="full" height="100%" version="1.1" viewBox="50 -418 900 418" width="100%" xmlns="http://www.w3.org/2000/svg" xmlns:ev="http://www.w3.org/2001/xml-events" xmlns:xlink="http://www.w3.org/1999/xlink"><defs /><path d="M50 -304V-114Q50 -67 83 -33Q117 0 164 0H735Q782 0 815 -33Q849 -67 849 -114V-304Q849 -351 815 -385Q782 -418 735 -418H164Q117 -418 83 -385Q50 -351 50 -304ZM110 -60Q88 -83 88 -114V-304Q88 -336 110 -358Q133 -380 164 -380H735Q766 -380 788 -358Q811 -336 811 -304V-114Q811 -83 788 -60Q766 -38 735 -38H164Q133 -38 110 -60ZM887 -299Q888 -298 890 -298Q892 -297 893 -296Q895 -295 897 -295Q898 -294 900 -293Q902 -292 903 -291Q905 -290 906 -289Q908 -288 909 -287Q911 -286 912 -285Q914 -284 915 -283Q917 -282 918 -280Q919 -279 921 -278Q922 -277 923 -275Q924 -274 926 -273Q927 -271 928 -270Q929 -268 930 -267Q931 -266 933 -264Q934 -263 935 -261Q936 -259 937 -258Q937 -256 938 -255Q939 -253 940 -251Q941 -250 942 -248Q942 -247 943 -245Q944 -243 944 -241Q945 -240 946 -238Q946 -236 947 -234Q947 -233 947 -231Q948 -229 948 -227Q949 -226 949 -224Q949 -222 949 -220Q950 -218 950 -216Q950 -215 950 -213Q950 -211 950 -209Q950 -207 950 -205Q950 -204 950 -202Q950 -200 949 -198Q949 -196 949 -195Q949 -193 948 -191Q948 -189 947 -187Q947 -186 947 -184Q946 -182 946 -180Q945 -179 944 -177Q944 -175 943 -173Q942 -172 942 -170Q941 -168 940 -167Q939 -165 938 -164Q937 -162 937 -160Q936 -159 935 -157Q934 -156 933 -154Q931 -153 930 -151Q929 -150 928 -148Q927 -147 926 -146Q924 -144 923 -143Q922 -142 921 -140Q919 -139 918 -138Q917 -137 915 -136Q914 -134 912 -133Q911 -132 909 -131Q908 -130 906 -129Q905 -128 903 -127Q902 -126 900 -125Q898 -125 897 -124Q895 -123 893 -122Q892 -121 890 -121Q888 -120 887 -120ZM145 -127V-292Q145 -292 145 -293Q145 -294 145 -295Q145 -295 145 -296Q146 -297 146 -298Q146 -298 146 -299Q146 -300 146 -301Q147 -301 147 -302Q147 -303 147 -304Q148 -304 148 -305Q148 -306 149 -306Q149 -307 150 -308Q150 -309 150 -309Q151 -310 151 -310Q152 -311 152 -312Q153 -312 153 -313Q154 -313 154 -314Q155 -315 155 -315Q156 -316 157 -316Q157 -317 158 -317Q159 -317 159 -318Q160 -318 160 -319Q161 -319 162 -319Q163 -320 163 -320Q164 -321 165 -321Q165 -321 166 -321Q167 -322 168 -322Q168 -322 169 -322Q170 -322 171 -323Q171 -323 172 -323Q173 -323 174 -323Q174 -323 175 -323Q176 -323 177 -323H418Q418 -323 419 -323Q420 -323 421 -323Q421 -323 422 -323Q423 -323 424 -323Q425 -322 425 -322Q426 -322 427 -322Q428 -322 428 -321Q429 -321 430 -321Q430 -321 431 -320Q432 -320 433 -319Q433 -319 434 -319Q435 -318 435 -318Q436 -317 436 -317Q437 -317 438 -316Q438 -316 439 -315Q439 -315 440 -314Q441 -313 441 -313Q442 -312 442 -312Q443 -311 443 -310Q444 -310 444 -309Q444 -309 445 -308Q445 -307 446 -306Q446 -306 446 -305Q447 -304 447 -304Q447 -303 447 -302Q448 -301 448 -301Q448 -300 448 -299Q449 -298 449 -298Q449 -297 449 -296Q449 -295 449 -295Q449 -294 449 -293Q449 -292 449 -292V-127Q449 -126 449 -125Q449 -124 449 -124Q449 -123 449 -122Q449 -121 449 -121Q449 -120 448 -119Q448 -118 448 -118Q448 -117 447 -116Q447 -115 447 -115Q447 -114 446 -113Q446 -113 446 -112Q445 -111 445 -110Q444 -110 444 -109Q444 -109 443 -108Q443 -107 442 -107Q442 -106 441 -105Q441 -105 440 -104Q439 -104 439 -103Q438 -103 438 -102Q437 -102 436 -101Q436 -101 435 -100Q435 -100 434 -100Q433 -99 433 -99Q432 -98 431 -98Q430 -98 430 -97Q429 -97 428 -97Q428 -97 427 -96Q426 -96 425 -96Q425 -96 424 -96Q423 -96 422 -95Q421 -95 421 -95Q420 -95 419 -95Q418 -95 418 -95H177Q176 -95 175 -95Q174 -95 174 -95Q173 -95 172 -95Q171 -96 171 -96Q170 -96 169 -96Q168 -96 168 -96Q167 -97 166 -97Q165 -97 165 -97Q164 -98 163 -98Q163 -98 162 -99Q161 -99 160 -100Q160 -100 159 -100Q159 -101 158 -101Q157 -102 157 -102Q156 -103 155 -103Q155 -104 154 -104Q154 -105 153 -105Q153 -106 152 -107Q152 -107 151 -108Q151 -109 150 -109Q150 -110 150 -110Q149 -111 149 -112Q148 -113 148 -113Q148 -114 147 -115Q147 -115 147 -116Q147 -117 146 -118Q146 -118 146 -119Q146 -120 146 -121Q146 -121 145 -122Q145 -123 145 -124Q145 -124 145 -125Q145 -126 145 -127ZM189 -258V-149Q189 -148 189 -147Q189 -146 189 -145Q190 -144 190 -143Q190 -142 190 -141Q190 -141 190 -140Q191 -139 191 -138Q191 -137 192 -136Q192 -135 192 -134Q193 -133 193 -133Q193 -132 194 -131Q194 -130 195 -129Q195 -129 196 -128Q196 -127 197 -126Q197 -125 198 -125Q199 -124 199 -123Q200 -123 200 -122Q201 -121 202 -121Q202 -120 203 -119Q204 -119 205 -118Q205 -118 206 -117Q207 -117 208 -116Q209 -116 209 -115Q210 -115 211 -114Q212 -114 213 -114Q214 -113 214 -113Q215 -113 216 -112Q217 -112 218 -112Q219 -112 220 -112Q221 -111 222 -111Q223 -111 224 -111Q225 -111 225 -111Q226 -111 227 -111H396Q397 -111 398 -111Q399 -111 399 -111Q400 -111 401 -111Q402 -111 403 -112Q404 -112 405 -112Q406 -112 407 -112Q408 -113 409 -113Q409 -113 410 -114Q411 -114 412 -114Q413 -115 414 -115Q415 -116 415 -116Q416 -117 417 -117Q418 -118 418 -118Q419 -119 420 -119Q421 -120 421 -121Q422 -121 423 -122Q423 -123 424 -123Q425 -124 425 -125Q426 -125 426 -126Q427 -127 427 -128Q428 -129 428 -129Q429 -130 429 -131Q430 -132 430 -133Q431 -133 431 -134Q431 -135 432 -136Q432 -137 432 -138Q432 -139 433 -140Q433 -141 433 -141Q433 -142 433 -143Q434 -144 434 -145Q434 -146 434 -147Q434 -148 434 -149V-258Q434 -259 434 -260Q434 -261 434 -262Q434 -263 433 -264Q433 -265 433 -266Q433 -267 433 -268Q432 -269 432 -269Q432 -270 432 -271Q431 -272 431 -273Q431 -274 430 -275Q430 -275 429 -276Q429 -277 428 -278Q428 -279 427 -280Q427 -280 426 -281Q426 -282 425 -283Q425 -283 424 -284Q423 -285 423 -285Q422 -286 421 -287Q421 -287 420 -288Q419 -288 418 -289Q418 -289 417 -290Q416 -291 415 -291Q415 -291 414 -292Q413 -292 412 -293Q411 -293 410 -294Q409 -294 409 -294Q408 -295 407 -295Q406 -295 405 -295Q404 -296 403 -296Q402 -296 401 -296Q400 -296 399 -296Q399 -296 398 -296Q397 -296 396 -296H227Q226 -296 225 -296Q225 -296 224 -296Q223 -296 222 -296Q221 -296 220 -296Q219 -296 218 -295Q217 -295 216 -295Q215 -295 214 -294Q214 -294 213 -294Q212 -293 211 -293Q210 -292 209 -292Q209 -291 208 -291Q207 -291 206 -290Q205 -289 205 -289Q204 -288 203 -288Q202 -287 202 -287Q201 -286 200 -285Q200 -285 199 -284Q199 -283 198 -283Q197 -282 197 -281Q196 -280 196 -280Q195 -279 195 -278Q194 -277 194 -276Q193 -275 193 -275Q193 -274 192 -273Q192 -272 192 -271Q191 -270 191 -269Q191 -269 190 -268Q190 -267 190 -266Q190 -265 190 -264Q190 -263 189 -262Q189 -261 189 -260Q189 -259 189 -258ZM639 -122 714 -215Q716 -218 716 -220Q716 -226 710 -226H664L688 -292Q690 -301 683 -302Q680 -302 677 -299L602 -205Q600 -203 600 -200Q601 -195 606 -194H652L628 -128Q626 -119 633 -118Q637 -118 639 -122ZM256 -218Q269 -218 279 -214Q289 -209 294 -200Q300 -192 300 -180Q300 -166 294 -157Q288 -147 277 -142Q266 -137 251 -137Q241 -137 232 -138Q224 -140 218 -144V-158Q224 -154 233 -152Q243 -149 251 -149Q261 -149 269 -152Q276 -156 280 -162Q285 -168 285 -178Q285 -191 277 -198Q269 -205 251 -205Q246 -205 239 -205Q233 -204 228 -203L221 -208L226 -269H291V-255H239L235 -216Q239 -217 244 -217Q249 -218 256 -218ZM405 -204Q405 -188 403 -175Q401 -163 395 -154Q390 -146 382 -141Q374 -137 362 -137Q348 -137 338 -144Q329 -152 324 -167Q319 -182 319 -204Q319 -225 324 -240Q328 -255 337 -263Q347 -271 362 -271Q377 -271 387 -263Q396 -255 401 -240Q405 -225 405 -204ZM334 -204Q334 -185 337 -173Q340 -161 346 -155Q352 -149 362 -149Q372 -149 379 -155Q385 -161 388 -173Q390 -185 390 -204Q390 -222 388 -234Q385 -246 379 -252Q373 -258 362 -258Q352 -258 346 -252Q340 -246 337 -234Q334 -222 334 -204Z" /></svg>
