<?xml version="1.0" encoding="utf-8" ?>
<svg baseProfile="full" height="100%" version="1.1" viewBox="50 -418 900 418" width="100%" xmlns="http://www.w3.org/2000/svg" xmlns:ev="http://www.w3.org/2001/xml-events" xmlns:xlink="http://www.w3.org/1999/xlink"><defs /><path d="M50 -304V-114Q50 -67 83 -33Q117 0 164 0H735Q782 0 815 -33Q849 -67 849 -114V-304Q849 -351 815 -385Q782 -418 735 -418H164Q117 -418 83 -385Q50 -351 50 -304ZM110 -60Q88 -83 88 -114V-304Q88 -336 110 -358Q133 -380 164 -380H735Q766 -380 788 -358Q811 -336 811 -304V-114Q811 -83 788 -60Q766 -38 735 -38H164Q133 -38 110 -60ZM887 -299Q888 -298 890 -298Q892 -297 893 -296Q895 -295 897 -295Q898 -294 900 -293Q902 -292 903 -291Q905 -290 906 -289Q908 -288 909 -287Q911 -286 912 -285Q914 -284 915 -283Q917 -282 918 -280Q919 -279 921 -278Q922 -277 923 -275Q924 -274 926 -273Q927 -271 928 -270Q929 -268 930 -267Q931 -266 933 -264Q934 -263 935 -261Q936 -259 937 -258Q937 -256 938 -255Q939 -253 940 -251Q941 -250 942 -248Q942 -247 943 -245Q944 -243 944 -241Q945 -240 946 -238Q946 -236 947 -234Q947 -233 947 -231Q948 -229 948 -227Q949 -226 949 -224Q949 -222 949 -220Q950 -218 950 -216Q950 -215 950 -213Q950 -211 950 -209Q950 -207 950 -205Q950 -204 950 -202Q950 -200 949 -198Q949 -196 949 -195Q949 -193 948 -191Q948 -189 947 -187Q947 -186 947 -184Q946 -182 946 -180Q945 -179 944 -177Q944 -175 943 -173Q942 -172 942 -170Q941 -168 940 -167Q939 -165 938 -164Q937 -162 937 -160Q936 -159 935 -157Q934 -156 933 -154Q931 -153 930 -151Q929 -150 928 -148Q927 -147 926 -146Q924 -144 923 -143Q922 -142 921 -140Q919 -139 918 -138Q917 -137 915 -136Q914 -134 912 -133Q911 -132 909 -131Q908 -130 906 -129Q905 -128 903 -127Q902 -126 900 -125Q898 -125 897 -124Q895 -123 893 -122Q892 -121 890 -121Q888 -120 887 -120ZM145 -127V-292Q145 -292 145 -293Q145 -294 145 -295Q145 -295 145 -296Q146 -297 146 -298Q146 -298 146 -299Q146 -300 146 -301Q147 -301 147 -302Q147 -303 147 -304Q148 -304 148 -305Q148 -306 149 -306Q149 -307 150 -308Q150 -309 150 -309Q151 -310 151 -310Q152 -311 152 -312Q153 -312 153 -313Q154 -313 154 -314Q155 -315 155 -315Q156 -316 157 -316Q157 -317 158 -317Q159 -317 159 -318Q160 -318 160 -319Q161 -319 162 -319Q163 -320 163 -320Q164 -321 165 -321Q165 -321 166 -321Q167 -322 168 -322Q168 -322 169 -322Q170 -322 171 -323Q171 -323 172 -323Q173 -323 174 -323Q174 -323 175 -323Q176 -323 177 -323H357Q358 -323 360 -323Q361 -323 362 -323Q364 -322 365 -322Q366 -322 368 -321Q369 -321 370 -320Q372 -320 373 -319Q374 -318 375 -317Q376 -317 377 -316Q378 -315 379 -314Q380 -313 381 -312Q382 -311 383 -309Q384 -308 384 -307Q385 -306 386 -304Q386 -303 387 -302Q387 -301 388 -299Q388 -298 388 -296H219Q218 -296 217 -296Q216 -296 215 -296Q214 -296 213 -296Q213 -296 212 -296Q211 -296 210 -295Q209 -295 208 -295Q207 -295 206 -294Q205 -294 205 -294Q204 -293 203 -293Q202 -292 201 -292Q200 -291 200 -291Q199 -291 198 -290Q197 -289 196 -289Q196 -288 195 -288Q194 -287 194 -287Q193 -286 192 -285Q192 -285 191 -284Q190 -283 190 -283Q189 -282 189 -281Q188 -280 187 -280Q187 -279 186 -278Q186 -277 186 -276Q185 -275 185 -275Q184 -274 184 -273Q184 -272 183 -271Q183 -270 183 -269Q182 -269 182 -268Q182 -267 182 -266Q182 -265 181 -264Q181 -263 181 -262Q181 -261 181 -260Q181 -259 181 -258V-149Q181 -148 181 -147Q181 -146 181 -145Q181 -144 181 -143Q182 -142 182 -141Q182 -141 182 -140Q182 -139 183 -138Q183 -137 183 -136Q184 -135 184 -134Q184 -133 185 -133Q185 -132 186 -131Q186 -130 186 -129Q187 -129 187 -128Q188 -127 189 -126Q189 -125 190 -125Q190 -124 191 -123Q192 -123 192 -122Q193 -121 194 -121Q194 -120 195 -119Q196 -119 196 -118Q197 -118 198 -117Q199 -117 200 -116Q200 -116 201 -115Q202 -115 203 -114Q204 -114 205 -114Q205 -113 206 -113Q207 -113 208 -112Q209 -112 210 -112Q211 -112 212 -112Q213 -111 213 -111Q214 -111 215 -111Q216 -111 217 -111Q218 -111 219 -111H384Q383 -109 382 -107Q381 -106 379 -104Q378 -103 376 -102Q374 -100 373 -99Q371 -98 369 -97Q367 -97 365 -96Q363 -96 361 -95Q359 -95 357 -95H177Q176 -95 175 -95Q174 -95 174 -95Q173 -95 172 -95Q171 -96 171 -96Q170 -96 169 -96Q168 -96 168 -96Q167 -97 166 -97Q165 -97 165 -97Q164 -98 163 -98Q163 -98 162 -99Q161 -99 160 -100Q160 -100 159 -100Q159 -101 158 -101Q157 -102 157 -102Q156 -103 155 -103Q155 -104 154 -104Q154 -105 153 -105Q153 -106 152 -107Q152 -107 151 -108Q151 -109 150 -109Q150 -110 150 -110Q149 -111 149 -112Q148 -113 148 -113Q148 -114 147 -115Q147 -115 147 -116Q147 -117 146 -118Q146 -118 146 -119Q146 -120 146 -121Q146 -121 145 -122Q145 -123 145 -124Q145 -124 145 -125Q145 -126 145 -127ZM639 -122 714 -215Q716 -218 716 -220Q716 -226 710 -226H664L688 -292Q690 -301 683 -302Q680 -302 677 -299L602 -205Q600 -203 600 -200Q601 -195 606 -194H652L628 -128Q626 -119 633 -118Q637 -118 639 -122ZM307 -169H287V-138H273V-169H210V-181L272 -269H287V-182H307ZM273 -182V-225Q273 -229 273 -233Q273 -237 273 -241Q273 -244 274 -247Q274 -250 274 -253H273Q271 -250 269 -246Q267 -242 265 -239L225 -182ZM405 -204Q405 -188 403 -175Q401 -163 395 -154Q390 -146 382 -141Q374 -137 362 -137Q348 -137 338 -144Q329 -152 324 -167Q319 -182 319 -204Q319 -225 324 -240Q328 -255 337 -263Q347 -271 362 -271Q377 -271 387 -263Q396 -255 401 -240Q405 -225 405 -204ZM334 -204Q334 -185 337 -173Q340 -161 346 -155Q352 -149 362 -149Q372 -149 379 -155Q385 -161 388 -173Q390 -185 390 -204Q390 -222 388 -234Q385 -246 379 -252Q373 -258 362 -258Q352 -258 346 -252Q340 -246 337 -234Q334 -222 334 -204Z" /></svg>
