<?xml version="1.0" encoding="utf-8" ?>
<svg baseProfile="full" height="100%" version="1.1" viewBox="50 0 900 418" width="100%" xmlns="http://www.w3.org/2000/svg" xmlns:ev="http://www.w3.org/2001/xml-events" xmlns:xlink="http://www.w3.org/1999/xlink"><defs /><path d="M441 10 442 11 464 38H735Q766 38 788 60Q811 83 811 114V304Q811 336 788 358Q766 380 735 380H549Q549 396 543 408Q539 414 535 418H735Q782 418 815 385Q849 351 849 304V114Q849 67 815 33Q782 0 735 0H431Q436 4 441 10ZM368 0H164Q117 0 83 33Q50 67 50 114V304Q50 351 83 385Q117 418 164 418H463Q460 416 458 413L432 380H164Q133 380 110 358Q88 336 88 304V114Q88 83 110 60Q133 38 164 38H350Q350 25 356 15Q361 6 368 0ZM887 299Q888 298 890 298Q892 297 893 296Q895 295 897 295Q898 294 900 293Q902 292 903 291Q905 290 906 289Q908 288 909 287Q911 286 912 285Q914 284 915 283Q917 282 918 280Q919 279 921 278Q922 277 923 275Q924 274 926 273Q927 271 928 270Q929 268 930 267Q931 266 933 264Q934 263 935 261Q936 259 937 258Q937 256 938 255Q939 253 940 251Q941 250 942 248Q942 247 943 245Q944 243 944 241Q945 240 946 238Q946 236 947 234Q947 233 947 231Q948 229 948 227Q949 226 949 224Q949 222 949 220Q950 218 950 216Q950 215 950 213Q950 211 950 209Q950 207 950 205Q950 204 950 202Q950 200 949 198Q949 196 949 195Q949 193 948 191Q948 189 947 187Q947 186 947 184Q946 182 946 180Q945 179 944 177Q944 175 943 173Q942 172 942 170Q941 168 940 167Q939 165 938 164Q937 162 937 160Q936 159 935 157Q934 156 933 154Q931 153 930 151Q929 150 928 148Q927 147 926 146Q924 144 923 143Q922 142 921 140Q919 139 918 138Q917 137 915 136Q914 134 912 133Q911 132 909 131Q908 130 906 129Q905 128 903 127Q902 126 900 125Q898 125 897 124Q895 123 893 122Q892 121 890 121Q888 120 887 120ZM412 34 561 221Q565 227 565 232Q564 243 553 244H461L510 375Q514 394 499 395Q493 395 487 389L338 202Q334 196 333 191Q334 180 346 179H438L389 47Q385 29 400 28Q406 28 412 34Z" /></svg>
