<?xml version="1.0" encoding="utf-8" ?>
<svg baseProfile="full" height="100%" version="1.1" viewBox="50 -418 900 418" width="100%" xmlns="http://www.w3.org/2000/svg" xmlns:ev="http://www.w3.org/2001/xml-events" xmlns:xlink="http://www.w3.org/1999/xlink"><defs /><path d="M50 -304V-114Q50 -67 83 -33Q117 0 164 0H735Q782 0 815 -33Q849 -67 849 -114V-304Q849 -351 815 -385Q782 -418 735 -418H164Q117 -418 83 -385Q50 -351 50 -304ZM110 -60Q88 -83 88 -114V-304Q88 -336 110 -358Q133 -380 164 -380H735Q766 -380 788 -358Q811 -336 811 -304V-114Q811 -83 788 -60Q766 -38 735 -38H164Q133 -38 110 -60ZM887 -299Q888 -298 890 -298Q892 -297 893 -296Q895 -295 897 -295Q898 -294 900 -293Q902 -292 903 -291Q905 -290 906 -289Q908 -288 909 -287Q911 -286 912 -285Q914 -284 915 -283Q917 -282 918 -280Q919 -279 921 -278Q922 -277 923 -275Q924 -274 926 -273Q927 -271 928 -270Q929 -268 930 -267Q931 -266 933 -264Q934 -263 935 -261Q936 -259 937 -258Q937 -256 938 -255Q939 -253 940 -251Q941 -250 942 -248Q942 -247 943 -245Q944 -243 944 -241Q945 -240 946 -238Q946 -236 947 -234Q947 -233 947 -231Q948 -229 948 -227Q949 -226 949 -224Q949 -222 949 -220Q950 -218 950 -216Q950 -215 950 -213Q950 -211 950 -209Q950 -207 950 -205Q950 -204 950 -202Q950 -200 949 -198Q949 -196 949 -195Q949 -193 948 -191Q948 -189 947 -187Q947 -186 947 -184Q946 -182 946 -180Q945 -179 944 -177Q944 -175 943 -173Q942 -172 942 -170Q941 -168 940 -167Q939 -165 938 -164Q937 -162 937 -160Q936 -159 935 -157Q934 -156 933 -154Q931 -153 930 -151Q929 -150 928 -148Q927 -147 926 -146Q924 -144 923 -143Q922 -142 921 -140Q919 -139 918 -138Q917 -137 915 -136Q914 -134 912 -133Q911 -132 909 -131Q908 -130 906 -129Q905 -128 903 -127Q902 -126 900 -125Q898 -125 897 -124Q895 -123 893 -122Q892 -121 890 -121Q888 -120 887 -120ZM145 -127V-292Q145 -292 145 -293Q145 -294 145 -295Q145 -295 145 -296Q146 -297 146 -298Q146 -298 146 -299Q146 -300 146 -301Q147 -301 147 -302Q147 -303 147 -304Q148 -304 148 -305Q148 -306 149 -306Q149 -307 150 -308Q150 -309 150 -309Q151 -310 151 -310Q152 -311 152 -312Q153 -312 153 -313Q154 -313 154 -314Q155 -315 155 -315Q156 -316 157 -316Q157 -317 158 -317Q159 -317 159 -318Q160 -318 160 -319Q161 -319 162 -319Q163 -320 163 -320Q164 -321 165 -321Q165 -321 166 -321Q167 -322 168 -322Q168 -322 169 -322Q170 -322 171 -323Q171 -323 172 -323Q173 -323 174 -323Q174 -323 175 -323Q176 -323 177 -323H661Q664 -323 667 -323Q670 -322 673 -321Q675 -320 678 -318Q680 -317 683 -315Q674 -315 667 -307L592 -213Q588 -207 587 -201V-200V-199Q589 -183 605 -181H606H634L616 -132L615 -131Q613 -122 617 -115Q622 -107 632 -106H633Q642 -105 649 -113V-114L693 -168V-127Q693 -126 693 -125Q693 -124 693 -124Q692 -123 692 -122Q692 -121 692 -121Q692 -120 692 -119Q692 -118 691 -118Q691 -117 691 -116Q691 -115 690 -115Q690 -114 690 -113Q689 -113 689 -112Q689 -111 688 -110Q688 -110 687 -109Q687 -109 686 -108Q686 -107 685 -107Q685 -106 684 -105Q684 -105 683 -104Q683 -104 682 -103Q682 -103 681 -102Q680 -102 680 -101Q679 -101 679 -100Q678 -100 677 -100Q677 -99 676 -99Q675 -98 675 -98Q674 -98 673 -97Q672 -97 672 -97Q671 -97 670 -96Q669 -96 669 -96Q668 -96 667 -96Q666 -96 666 -95Q665 -95 664 -95Q663 -95 663 -95Q662 -95 661 -95H177Q176 -95 175 -95Q174 -95 174 -95Q173 -95 172 -95Q171 -96 171 -96Q170 -96 169 -96Q168 -96 168 -96Q167 -97 166 -97Q165 -97 165 -97Q164 -98 163 -98Q163 -98 162 -99Q161 -99 160 -100Q160 -100 159 -100Q159 -101 158 -101Q157 -102 157 -102Q156 -103 155 -103Q155 -104 154 -104Q154 -105 153 -105Q153 -106 152 -107Q152 -107 151 -108Q151 -109 150 -109Q150 -110 150 -110Q149 -111 149 -112Q148 -113 148 -113Q148 -114 147 -115Q147 -115 147 -116Q147 -117 146 -118Q146 -118 146 -119Q146 -120 146 -121Q146 -121 145 -122Q145 -123 145 -124Q145 -124 145 -125Q145 -126 145 -127ZM187 -258V-149Q187 -148 187 -147Q187 -146 187 -145Q187 -144 187 -143Q187 -142 187 -141Q187 -140 188 -140Q188 -139 188 -138Q188 -137 189 -136Q189 -135 189 -134Q190 -133 190 -133Q191 -132 191 -131Q191 -130 192 -129Q192 -128 193 -128Q193 -127 194 -126Q195 -125 195 -125Q196 -124 196 -123Q197 -123 198 -122Q198 -121 199 -121Q200 -120 200 -119Q201 -119 202 -118Q203 -118 203 -117Q204 -117 205 -116Q206 -116 207 -115Q207 -115 208 -114Q209 -114 210 -114Q211 -113 212 -113Q213 -113 214 -112Q214 -112 215 -112Q216 -112 217 -111Q218 -111 219 -111Q220 -111 221 -111Q222 -111 223 -111Q224 -111 225 -111H396Q397 -111 398 -111Q399 -111 400 -111Q401 -111 401 -111Q402 -111 403 -111Q404 -112 405 -112Q406 -112 407 -112Q408 -113 409 -113Q410 -113 410 -114Q411 -114 412 -114Q413 -115 414 -115Q415 -116 415 -116Q416 -117 417 -117Q418 -118 419 -118Q419 -119 420 -119Q421 -120 421 -121Q422 -121 423 -122Q423 -123 424 -123Q425 -124 425 -125Q426 -125 426 -126Q427 -127 428 -128Q428 -128 429 -129Q429 -130 429 -131Q430 -132 430 -133Q431 -133 431 -134Q431 -135 432 -136Q432 -137 432 -138Q433 -139 433 -140Q433 -140 433 -141Q433 -142 434 -143Q434 -144 434 -145Q434 -146 434 -147Q434 -148 434 -149V-258Q434 -259 434 -260Q434 -261 434 -262Q434 -263 434 -264Q433 -265 433 -266Q433 -267 433 -268Q433 -269 432 -269Q432 -270 432 -271Q431 -272 431 -273Q431 -274 430 -275Q430 -275 429 -276Q429 -277 429 -278Q428 -279 428 -280Q427 -280 426 -281Q426 -282 425 -283Q425 -283 424 -284Q423 -285 423 -285Q422 -286 421 -287Q421 -287 420 -288Q419 -288 419 -289Q418 -289 417 -290Q416 -291 415 -291Q415 -291 414 -292Q413 -292 412 -293Q411 -293 410 -294Q410 -294 409 -294Q408 -295 407 -295Q406 -295 405 -295Q404 -296 403 -296Q402 -296 401 -296Q401 -296 400 -296Q399 -296 398 -296Q397 -296 396 -296H225Q224 -296 223 -296Q222 -296 221 -296Q220 -296 219 -296Q218 -296 217 -296Q216 -296 215 -295Q214 -295 214 -295Q213 -295 212 -294Q211 -294 210 -294Q209 -293 208 -293Q207 -292 207 -292Q206 -291 205 -291Q204 -291 203 -290Q203 -289 202 -289Q201 -288 200 -288Q200 -287 199 -287Q198 -286 198 -285Q197 -285 196 -284Q196 -283 195 -283Q195 -282 194 -281Q193 -280 193 -280Q192 -279 192 -278Q191 -277 191 -276Q191 -275 190 -275Q190 -274 189 -273Q189 -272 189 -271Q188 -270 188 -269Q188 -269 188 -268Q187 -267 187 -266Q187 -265 187 -264Q187 -263 187 -262Q187 -261 187 -260Q187 -259 187 -258ZM682 -239 693 -267V-239ZM639 -122 714 -215Q716 -218 716 -220Q716 -226 710 -226H664L688 -292Q690 -301 683 -302Q680 -302 677 -299L602 -205Q600 -203 600 -200Q601 -195 606 -194H652L628 -128Q626 -119 633 -118Q637 -118 639 -122ZM300 -213Q300 -201 299 -190Q297 -179 293 -169Q289 -159 282 -152Q276 -145 265 -141Q255 -136 241 -136Q237 -136 232 -137Q227 -137 224 -138V-151Q228 -150 232 -149Q237 -149 241 -149Q258 -149 267 -156Q277 -163 281 -175Q285 -188 286 -203H284Q282 -199 277 -195Q273 -192 267 -189Q261 -187 253 -187Q241 -187 233 -192Q224 -197 220 -205Q215 -214 215 -227Q215 -240 220 -250Q225 -260 235 -265Q244 -271 256 -271Q266 -271 274 -267Q282 -263 288 -256Q294 -249 297 -238Q300 -227 300 -213ZM256 -258Q245 -258 237 -250Q230 -242 230 -227Q230 -214 236 -206Q243 -199 256 -199Q265 -199 271 -203Q278 -206 282 -212Q285 -217 285 -223Q285 -229 284 -235Q282 -241 278 -246Q275 -252 269 -255Q264 -258 256 -258ZM405 -204Q405 -188 403 -175Q401 -163 395 -154Q390 -146 382 -141Q374 -137 362 -137Q348 -137 338 -144Q329 -152 324 -167Q319 -182 319 -204Q319 -225 324 -240Q328 -255 337 -263Q347 -271 362 -271Q377 -271 387 -263Q396 -255 401 -240Q405 -225 405 -204ZM334 -204Q334 -185 337 -173Q340 -161 346 -155Q352 -149 362 -149Q372 -149 379 -155Q385 -161 388 -173Q390 -185 390 -204Q390 -222 388 -234Q385 -246 379 -252Q373 -258 362 -258Q352 -258 346 -252Q340 -246 337 -234Q334 -222 334 -204Z" /></svg>
