<?xml version="1.0" encoding="utf-8" ?>
<svg baseProfile="full" height="100%" version="1.1" viewBox="50 -418 900 418" width="100%" xmlns="http://www.w3.org/2000/svg" xmlns:ev="http://www.w3.org/2001/xml-events" xmlns:xlink="http://www.w3.org/1999/xlink"><defs /><path d="M50 -304V-114Q50 -67 83 -33Q117 0 164 0H735Q782 0 815 -33Q849 -67 849 -114V-304Q849 -351 815 -385Q782 -418 735 -418H164Q117 -418 83 -385Q50 -351 50 -304ZM110 -60Q88 -83 88 -114V-304Q88 -336 110 -358Q133 -380 164 -380H735Q766 -380 788 -358Q811 -336 811 -304V-114Q811 -83 788 -60Q766 -38 735 -38H164Q133 -38 110 -60ZM887 -299Q888 -298 890 -298Q892 -297 893 -296Q895 -295 897 -295Q898 -294 900 -293Q902 -292 903 -291Q905 -290 906 -289Q908 -288 909 -287Q911 -286 912 -285Q914 -284 915 -283Q917 -282 918 -280Q919 -279 921 -278Q922 -277 923 -275Q924 -274 926 -273Q927 -271 928 -270Q929 -268 930 -267Q931 -266 933 -264Q934 -263 935 -261Q936 -259 937 -258Q937 -256 938 -255Q939 -253 940 -251Q941 -250 942 -248Q942 -247 943 -245Q944 -243 944 -241Q945 -240 946 -238Q946 -236 947 -234Q947 -233 947 -231Q948 -229 948 -227Q949 -226 949 -224Q949 -222 949 -220Q950 -218 950 -216Q950 -215 950 -213Q950 -211 950 -209Q950 -207 950 -205Q950 -204 950 -202Q950 -200 949 -198Q949 -196 949 -195Q949 -193 948 -191Q948 -189 947 -187Q947 -186 947 -184Q946 -182 946 -180Q945 -179 944 -177Q944 -175 943 -173Q942 -172 942 -170Q941 -168 940 -167Q939 -165 938 -164Q937 -162 937 -160Q936 -159 935 -157Q934 -156 933 -154Q931 -153 930 -151Q929 -150 928 -148Q927 -147 926 -146Q924 -144 923 -143Q922 -142 921 -140Q919 -139 918 -138Q917 -137 915 -136Q914 -134 912 -133Q911 -132 909 -131Q908 -130 906 -129Q905 -128 903 -127Q902 -126 900 -125Q898 -125 897 -124Q895 -123 893 -122Q892 -121 890 -121Q888 -120 887 -120ZM145 -127V-292Q145 -292 145 -293Q145 -294 145 -295Q145 -295 145 -296Q146 -297 146 -298Q146 -298 146 -299Q146 -300 146 -301Q147 -301 147 -302Q147 -303 147 -304Q148 -304 148 -305Q148 -306 149 -306Q149 -307 150 -308Q150 -309 150 -309Q151 -310 151 -310Q152 -311 152 -312Q153 -312 153 -313Q154 -313 154 -314Q155 -315 155 -315Q156 -316 157 -316Q157 -317 158 -317Q159 -317 159 -318Q160 -318 160 -319Q161 -319 162 -319Q163 -320 163 -320Q164 -321 165 -321Q165 -321 166 -321Q167 -322 168 -322Q168 -322 169 -322Q170 -322 171 -323Q171 -323 172 -323Q173 -323 174 -323Q174 -323 175 -323Q176 -323 177 -323H235Q236 -323 238 -323Q239 -323 241 -323Q242 -322 243 -322Q245 -322 246 -321Q247 -321 249 -320Q250 -320 251 -319Q252 -318 253 -317Q255 -317 256 -316Q257 -315 258 -314Q259 -313 260 -312Q260 -311 261 -309Q262 -308 263 -307Q263 -306 264 -304Q265 -303 265 -302Q265 -301 266 -299Q266 -298 266 -296H224Q223 -296 223 -296Q222 -296 221 -296Q220 -296 219 -296Q218 -296 217 -296Q216 -296 215 -295Q214 -295 213 -295Q212 -295 212 -294Q211 -294 210 -294Q209 -293 208 -293Q207 -292 206 -292Q206 -291 205 -291Q204 -291 203 -290Q203 -289 202 -289Q201 -288 200 -288Q200 -287 199 -287Q198 -286 198 -285Q197 -285 196 -284Q196 -283 195 -283Q194 -282 194 -281Q193 -280 193 -280Q192 -279 192 -278Q191 -277 191 -276Q190 -275 190 -275Q190 -274 189 -273Q189 -272 189 -271Q188 -270 188 -269Q188 -269 188 -268Q187 -267 187 -266Q187 -265 187 -264Q187 -263 187 -262Q186 -261 186 -260Q186 -259 186 -258V-149Q186 -148 186 -147Q186 -146 187 -145Q187 -144 187 -143Q187 -142 187 -141Q187 -141 188 -140Q188 -139 188 -138Q188 -137 189 -136Q189 -135 189 -134Q190 -133 190 -133Q190 -132 191 -131Q191 -130 192 -129Q192 -129 193 -128Q193 -127 194 -126Q194 -125 195 -125Q196 -124 196 -123Q197 -123 198 -122Q198 -121 199 -121Q200 -120 200 -119Q201 -119 202 -118Q203 -118 203 -117Q204 -117 205 -116Q206 -116 206 -115Q207 -115 208 -114Q209 -114 210 -114Q211 -113 212 -113Q212 -113 213 -112Q214 -112 215 -112Q216 -112 217 -112Q218 -111 219 -111Q220 -111 221 -111Q222 -111 223 -111Q223 -111 224 -111H262Q261 -109 260 -107Q259 -106 257 -104Q256 -103 254 -102Q253 -100 251 -99Q249 -98 247 -97Q245 -97 243 -96Q241 -96 239 -95Q237 -95 235 -95H177Q176 -95 175 -95Q174 -95 174 -95Q173 -95 172 -95Q171 -96 171 -96Q170 -96 169 -96Q168 -96 168 -96Q167 -97 166 -97Q165 -97 165 -97Q164 -98 163 -98Q163 -98 162 -99Q161 -99 160 -100Q160 -100 159 -100Q159 -101 158 -101Q157 -102 157 -102Q156 -103 155 -103Q155 -104 154 -104Q154 -105 153 -105Q153 -106 152 -107Q152 -107 151 -108Q151 -109 150 -109Q150 -110 150 -110Q149 -111 149 -112Q148 -113 148 -113Q148 -114 147 -115Q147 -115 147 -116Q147 -117 146 -118Q146 -118 146 -119Q146 -120 146 -121Q146 -121 145 -122Q145 -123 145 -124Q145 -124 145 -125Q145 -126 145 -127ZM639 -122 714 -215Q716 -218 716 -220Q716 -226 710 -226H664L688 -292Q690 -301 683 -302Q680 -302 677 -299L602 -205Q600 -203 600 -200Q601 -195 606 -194H652L628 -128Q626 -119 633 -118Q637 -118 639 -122ZM300 -138H215V-151L250 -186Q259 -196 266 -204Q273 -211 276 -219Q280 -226 280 -235Q280 -246 273 -252Q267 -258 256 -258Q247 -258 239 -255Q232 -251 225 -245L217 -255Q222 -260 228 -263Q234 -267 241 -269Q248 -271 256 -271Q268 -271 277 -266Q285 -262 290 -254Q295 -247 295 -236Q295 -226 291 -217Q287 -208 279 -199Q272 -190 262 -181L234 -153V-152H300ZM405 -204Q405 -188 403 -175Q401 -163 395 -154Q390 -146 382 -141Q374 -137 362 -137Q348 -137 338 -144Q329 -152 324 -167Q319 -182 319 -204Q319 -225 324 -240Q328 -255 337 -263Q347 -271 362 -271Q377 -271 387 -263Q396 -255 401 -240Q405 -225 405 -204ZM334 -204Q334 -185 337 -173Q340 -161 346 -155Q352 -149 362 -149Q372 -149 379 -155Q385 -161 388 -173Q390 -185 390 -204Q390 -222 388 -234Q385 -246 379 -252Q373 -258 362 -258Q352 -258 346 -252Q340 -246 337 -234Q334 -222 334 -204Z" /></svg>
