<?xml version="1.0" encoding="utf-8" ?>
<svg baseProfile="full" height="100%" version="1.1" viewBox="50 -418 900 418" width="100%" xmlns="http://www.w3.org/2000/svg" xmlns:ev="http://www.w3.org/2001/xml-events" xmlns:xlink="http://www.w3.org/1999/xlink"><defs /><path d="M50 -114V-304Q50 -351 83 -385Q117 -418 164 -418H735Q782 -418 815 -385Q849 -351 849 -304V-114Q849 -67 815 -33Q782 0 735 0H164Q117 0 83 -33Q50 -67 50 -114ZM88 -114Q88 -83 110 -60Q133 -38 164 -38H735Q766 -38 788 -60Q811 -83 811 -114V-304Q811 -336 788 -358Q766 -380 735 -380H164Q133 -380 110 -358Q88 -336 88 -304ZM887 -299Q888 -298 890 -298Q892 -297 893 -296Q895 -295 897 -295Q898 -294 900 -293Q902 -292 903 -291Q905 -290 906 -289Q908 -288 909 -287Q911 -286 912 -285Q914 -284 915 -283Q917 -282 918 -280Q919 -279 921 -278Q922 -277 923 -275Q924 -274 926 -273Q927 -271 928 -270Q929 -268 930 -267Q931 -266 933 -264Q934 -263 935 -261Q936 -259 937 -258Q937 -256 938 -255Q939 -253 940 -251Q941 -250 942 -248Q942 -247 943 -245Q944 -243 944 -241Q945 -240 946 -238Q946 -236 947 -234Q947 -233 947 -231Q948 -229 948 -227Q949 -226 949 -224Q949 -222 949 -220Q950 -218 950 -216Q950 -215 950 -213Q950 -211 950 -209Q950 -207 950 -205Q950 -204 950 -202Q950 -200 949 -198Q949 -196 949 -195Q949 -193 948 -191Q948 -189 947 -187Q947 -186 947 -184Q946 -182 946 -180Q945 -179 944 -177Q944 -175 943 -173Q942 -172 942 -170Q941 -168 940 -167Q939 -165 938 -164Q937 -162 937 -160Q936 -159 935 -157Q934 -156 933 -154Q931 -153 930 -151Q929 -150 928 -148Q927 -147 926 -146Q924 -144 923 -143Q922 -142 921 -140Q919 -139 918 -138Q917 -137 915 -136Q914 -134 912 -133Q911 -132 909 -131Q908 -130 906 -129Q905 -128 903 -127Q902 -126 900 -125Q898 -125 897 -124Q895 -123 893 -122Q892 -121 890 -121Q888 -120 887 -120ZM145 -127V-292Q145 -292 145 -293Q145 -294 145 -295Q145 -295 145 -296Q146 -297 146 -298Q146 -298 146 -299Q146 -300 146 -301Q147 -301 147 -302Q147 -303 147 -304Q148 -304 148 -305Q148 -306 149 -306Q149 -307 150 -308Q150 -309 150 -309Q151 -310 151 -310Q152 -311 152 -312Q153 -312 153 -313Q154 -313 154 -314Q155 -315 155 -315Q156 -316 157 -316Q157 -317 158 -317Q159 -317 159 -318Q160 -318 160 -319Q161 -319 162 -319Q163 -320 163 -320Q164 -321 165 -321Q165 -321 166 -321Q167 -322 168 -322Q168 -322 169 -322Q170 -322 171 -323Q171 -323 172 -323Q173 -323 174 -323Q174 -323 175 -323Q176 -323 177 -323H478Q479 -323 480 -323Q481 -323 482 -323Q482 -323 483 -323Q484 -323 485 -323Q485 -322 486 -322Q487 -322 488 -322Q488 -322 489 -321Q490 -321 491 -321Q491 -321 492 -320Q493 -320 493 -319Q494 -319 495 -319Q495 -318 496 -318Q497 -317 497 -317Q498 -317 499 -316Q499 -316 500 -315Q500 -315 501 -314Q501 -313 502 -313Q502 -312 503 -312Q503 -311 504 -310Q504 -310 505 -309Q505 -309 506 -308Q506 -307 506 -306Q507 -306 507 -305Q507 -304 508 -304Q508 -303 508 -302Q509 -301 509 -301Q509 -300 509 -299Q509 -298 510 -298Q510 -297 510 -296Q510 -295 510 -295Q510 -294 510 -293Q510 -292 510 -292V-127Q510 -126 510 -125Q510 -124 510 -124Q510 -123 510 -122Q510 -121 510 -121Q509 -120 509 -119Q509 -118 509 -118Q509 -117 508 -116Q508 -115 508 -115Q507 -114 507 -113Q507 -113 506 -112Q506 -111 506 -110Q505 -110 505 -109Q504 -109 504 -108Q503 -107 503 -107Q502 -106 502 -105Q501 -105 501 -104Q500 -104 500 -103Q499 -103 499 -102Q498 -102 497 -101Q497 -101 496 -100Q495 -100 495 -100Q494 -99 493 -99Q493 -98 492 -98Q491 -98 491 -97Q490 -97 489 -97Q488 -97 488 -96Q487 -96 486 -96Q485 -96 485 -96Q484 -96 483 -95Q482 -95 482 -95Q481 -95 480 -95Q479 -95 478 -95H177Q176 -95 175 -95Q174 -95 174 -95Q173 -95 172 -95Q171 -96 171 -96Q170 -96 169 -96Q168 -96 168 -96Q167 -97 166 -97Q165 -97 165 -97Q164 -98 163 -98Q163 -98 162 -99Q161 -99 160 -100Q160 -100 159 -100Q159 -101 158 -101Q157 -102 157 -102Q156 -103 155 -103Q155 -104 154 -104Q154 -105 153 -105Q153 -106 152 -107Q152 -107 151 -108Q151 -109 150 -109Q150 -110 150 -110Q149 -111 149 -112Q148 -113 148 -113Q148 -114 147 -115Q147 -115 147 -116Q147 -117 146 -118Q146 -118 146 -119Q146 -120 146 -121Q146 -121 145 -122Q145 -123 145 -124Q145 -124 145 -125Q145 -126 145 -127Z" /></svg>
