<?xml version="1.0" encoding="utf-8" ?>
<svg baseProfile="full" height="100%" version="1.1" viewBox="50 -418 900 418" width="100%" xmlns="http://www.w3.org/2000/svg" xmlns:ev="http://www.w3.org/2001/xml-events" xmlns:xlink="http://www.w3.org/1999/xlink"><defs /><path d="M440 -10H441V-11L463 -38H735Q766 -38 788 -60Q811 -83 811 -114V-304Q811 -336 788 -358Q766 -380 735 -380H548Q549 -396 542 -408Q539 -414 534 -418H735Q782 -418 815 -385Q849 -351 849 -304V-114Q849 -67 815 -33Q782 0 735 0H430Q435 -4 440 -10ZM367 0H164Q117 0 83 -33Q50 -67 50 -114V-304Q50 -351 83 -385Q117 -418 164 -418H462Q460 -416 457 -413L431 -380H164Q133 -380 110 -358Q88 -336 88 -304V-114Q88 -83 110 -60Q133 -38 164 -38H349Q350 -25 355 -15Q360 -6 367 0ZM887 -299Q888 -298 890 -298Q892 -297 893 -296Q895 -295 897 -295Q898 -294 900 -293Q902 -292 903 -291Q905 -290 906 -289Q908 -288 909 -287Q911 -286 912 -285Q914 -284 915 -283Q917 -282 918 -280Q919 -279 921 -278Q922 -277 923 -275Q924 -274 926 -273Q927 -271 928 -270Q929 -268 930 -267Q931 -266 933 -264Q934 -263 935 -261Q936 -259 937 -258Q937 -256 938 -255Q939 -253 940 -251Q941 -250 942 -248Q942 -247 943 -245Q944 -243 944 -241Q945 -240 946 -238Q946 -236 947 -234Q947 -233 947 -231Q948 -229 948 -227Q949 -226 949 -224Q949 -222 949 -220Q950 -218 950 -216Q950 -215 950 -213Q950 -211 950 -209Q950 -207 950 -205Q950 -204 950 -202Q950 -200 949 -198Q949 -196 949 -195Q949 -193 948 -191Q948 -189 947 -187Q947 -186 947 -184Q946 -182 946 -180Q945 -179 944 -177Q944 -175 943 -173Q942 -172 942 -170Q941 -168 940 -167Q939 -165 938 -164Q937 -162 937 -160Q936 -159 935 -157Q934 -156 933 -154Q931 -153 930 -151Q929 -150 928 -148Q927 -147 926 -146Q924 -144 923 -143Q922 -142 921 -140Q919 -139 918 -138Q917 -137 915 -136Q914 -134 912 -133Q911 -132 909 -131Q908 -130 906 -129Q905 -128 903 -127Q902 -126 900 -125Q898 -125 897 -124Q895 -123 893 -122Q892 -121 890 -121Q888 -120 887 -120ZM508 -95H539Q540 -95 541 -95Q542 -95 542 -95Q543 -95 544 -95Q545 -96 545 -96Q546 -96 547 -96Q548 -96 548 -96Q549 -97 550 -97Q551 -97 551 -97Q552 -98 553 -98Q554 -98 554 -99Q555 -99 556 -100Q556 -100 557 -100Q558 -101 558 -101Q559 -102 559 -102Q560 -103 561 -103Q561 -104 562 -104Q562 -105 563 -105Q563 -106 564 -107Q564 -107 565 -108Q565 -109 566 -109Q566 -110 566 -110Q567 -111 567 -112Q568 -113 568 -113Q568 -114 569 -115Q569 -115 569 -116Q569 -117 570 -118Q570 -118 570 -119Q570 -120 570 -121Q571 -121 571 -122Q571 -123 571 -124Q571 -124 571 -125Q571 -126 571 -127V-173ZM571 -279V-292Q571 -292 571 -293Q571 -294 571 -295Q571 -295 571 -296Q571 -297 570 -298Q570 -298 570 -299Q570 -300 570 -301Q569 -301 569 -302Q569 -303 569 -304Q568 -304 568 -305Q568 -306 567 -306Q567 -307 566 -308Q566 -309 566 -309Q565 -310 565 -310Q564 -311 564 -312Q563 -312 563 -313Q562 -313 562 -314Q561 -315 561 -315Q560 -316 559 -316Q559 -317 558 -317Q558 -317 557 -318Q556 -318 556 -319Q555 -319 554 -319Q554 -320 553 -320Q552 -321 551 -321Q551 -321 550 -321Q549 -322 548 -322Q548 -322 547 -322Q546 -322 545 -323Q545 -323 544 -323Q543 -323 542 -323Q542 -323 541 -323Q540 -323 539 -323H531L515 -282H554L555 -281Q564 -281 571 -279ZM386 -323H177Q176 -323 175 -323Q174 -323 174 -323Q173 -323 172 -323Q171 -323 171 -323Q170 -322 169 -322Q168 -322 168 -322Q167 -322 166 -321Q165 -321 165 -321Q164 -321 163 -320Q163 -320 162 -319Q161 -319 160 -319Q160 -318 159 -318Q159 -317 158 -317Q157 -317 157 -316Q156 -316 155 -315Q155 -315 154 -314Q154 -313 153 -313Q153 -312 152 -312Q152 -311 151 -310Q151 -310 150 -309Q150 -309 150 -308Q149 -307 149 -306Q148 -306 148 -305Q148 -304 147 -304Q147 -303 147 -302Q147 -301 146 -301Q146 -300 146 -299Q146 -298 146 -298Q146 -297 145 -296Q145 -295 145 -295Q145 -294 145 -293Q145 -292 145 -292V-127Q145 -126 145 -125Q145 -124 145 -124Q145 -123 145 -122Q146 -121 146 -121Q146 -120 146 -119Q146 -118 146 -118Q147 -117 147 -116Q147 -115 147 -115Q148 -114 148 -113Q148 -113 149 -112Q149 -111 150 -110Q150 -110 150 -109Q151 -109 151 -108Q152 -107 152 -107Q153 -106 153 -105Q154 -105 154 -104Q155 -104 155 -103Q156 -103 157 -102Q157 -102 158 -101Q159 -101 159 -100Q160 -100 160 -100Q161 -99 162 -99Q163 -98 163 -98Q164 -98 165 -97Q165 -97 166 -97Q167 -97 168 -96Q168 -96 169 -96Q170 -96 171 -96Q171 -96 172 -95Q173 -95 174 -95Q174 -95 175 -95Q176 -95 177 -95H365L382 -141H344H342Q299 -144 295 -187L294 -190L295 -193Q295 -210 307 -225ZM411 -34 560 -221Q565 -227 565 -232Q564 -243 552 -244H460L509 -375Q513 -394 498 -395Q492 -395 486 -388L337 -202Q333 -196 333 -191Q334 -180 345 -179H437L388 -47Q384 -29 399 -28Q405 -27 411 -34Z" /></svg>
