<?xml version="1.0" encoding="utf-8" ?>
<svg baseProfile="full" height="100%" version="1.1" viewBox="50 -418 900 418" width="100%" xmlns="http://www.w3.org/2000/svg" xmlns:ev="http://www.w3.org/2001/xml-events" xmlns:xlink="http://www.w3.org/1999/xlink"><defs /><path d="M50 -114V-304Q50 -351 83 -385Q117 -418 164 -418H735Q782 -418 815 -385Q849 -351 849 -304V-114Q849 -67 815 -33Q782 0 735 0H164Q117 0 83 -33Q50 -67 50 -114ZM88 -114Q88 -83 110 -60Q133 -38 164 -38H735Q766 -38 788 -60Q811 -83 811 -114V-304Q811 -336 788 -358Q766 -380 735 -380H164Q133 -380 110 -358Q88 -336 88 -304ZM887 -299Q888 -298 890 -298Q892 -297 893 -296Q895 -295 897 -295Q898 -294 900 -293Q902 -292 903 -291Q905 -290 906 -289Q908 -288 909 -287Q911 -286 912 -285Q914 -284 915 -283Q917 -282 918 -280Q919 -279 921 -278Q922 -277 923 -275Q924 -274 926 -273Q927 -271 928 -270Q929 -268 930 -267Q931 -266 933 -264Q934 -263 935 -261Q936 -259 937 -258Q937 -256 938 -255Q939 -253 940 -251Q941 -250 942 -248Q942 -247 943 -245Q944 -243 944 -241Q945 -240 946 -238Q946 -236 947 -234Q947 -233 947 -231Q948 -229 948 -227Q949 -226 949 -224Q949 -222 949 -220Q950 -218 950 -216Q950 -215 950 -213Q950 -211 950 -209Q950 -207 950 -205Q950 -204 950 -202Q950 -200 949 -198Q949 -196 949 -195Q949 -193 948 -191Q948 -189 947 -187Q947 -186 947 -184Q946 -182 946 -180Q945 -179 944 -177Q944 -175 943 -173Q942 -172 942 -170Q941 -168 940 -167Q939 -165 938 -164Q937 -162 937 -160Q936 -159 935 -157Q934 -156 933 -154Q931 -153 930 -151Q929 -150 928 -148Q927 -147 926 -146Q924 -144 923 -143Q922 -142 921 -140Q919 -139 918 -138Q917 -137 915 -136Q914 -134 912 -133Q911 -132 909 -131Q908 -130 906 -129Q905 -128 903 -127Q902 -126 900 -125Q898 -125 897 -124Q895 -123 893 -122Q892 -121 890 -121Q888 -120 887 -120ZM145 -293V-125Q145 -125 145 -124Q145 -123 145 -123Q145 -122 145 -121Q146 -120 146 -120Q146 -119 146 -118Q146 -117 146 -117Q147 -116 147 -115Q147 -115 147 -114Q148 -113 148 -112Q148 -112 149 -111Q149 -110 149 -110Q150 -109 150 -109Q151 -108 151 -107Q152 -107 152 -106Q152 -106 153 -105Q153 -105 154 -104Q155 -103 155 -103Q156 -102 156 -102Q157 -102 157 -101Q158 -101 159 -100Q159 -100 160 -99Q160 -99 161 -99Q162 -98 162 -98Q163 -98 164 -97Q165 -97 165 -97Q166 -97 167 -96Q167 -96 168 -96Q169 -96 170 -96Q170 -96 171 -95Q172 -95 173 -95Q173 -95 174 -95Q175 -95 175 -95Q177 -95 178 -95Q180 -95 181 -96Q182 -96 184 -96Q185 -97 186 -97Q188 -98 189 -98Q190 -99 191 -99Q192 -100 193 -101Q195 -102 196 -103Q197 -104 198 -105Q199 -106 199 -107Q200 -108 201 -109Q202 -110 202 -111Q203 -112 204 -114Q204 -115 205 -116Q205 -118 205 -119Q206 -120 206 -122Q204 -123 203 -124Q202 -126 201 -127Q200 -129 199 -131Q198 -132 197 -134Q196 -136 196 -138Q195 -139 195 -141Q195 -143 194 -145Q194 -147 194 -149V-258Q194 -260 194 -262Q195 -264 195 -266Q195 -268 196 -270Q197 -272 197 -273Q198 -275 199 -277Q200 -278 201 -280Q202 -282 203 -283Q205 -284 206 -286V-293Q206 -294 206 -294Q206 -295 206 -296Q206 -297 206 -297Q205 -298 205 -299Q205 -299 205 -300Q205 -301 205 -302Q204 -302 204 -303Q204 -304 204 -304Q203 -305 203 -306Q203 -306 202 -307Q202 -308 202 -308Q201 -309 201 -310Q200 -310 200 -311Q199 -312 199 -312Q199 -313 198 -313Q198 -314 197 -314Q196 -315 196 -315Q195 -316 195 -316Q194 -317 194 -317Q193 -318 192 -318Q192 -319 191 -319Q190 -319 190 -320Q189 -320 189 -320Q188 -321 187 -321Q186 -321 186 -321Q185 -322 184 -322Q184 -322 183 -322Q182 -323 181 -323Q181 -323 180 -323Q179 -323 178 -323Q178 -323 177 -323Q176 -323 175 -323Q175 -323 174 -323Q173 -323 173 -323Q172 -323 171 -323Q170 -323 170 -323Q169 -323 168 -322Q167 -322 167 -322Q166 -322 165 -321Q165 -321 164 -321Q163 -321 162 -320Q162 -320 161 -320Q160 -319 160 -319Q159 -319 159 -318Q158 -318 157 -317Q157 -317 156 -316Q156 -316 155 -315Q155 -315 154 -314Q153 -314 153 -313Q152 -313 152 -312Q152 -312 151 -311Q151 -310 150 -310Q150 -309 149 -308Q149 -308 149 -307Q148 -306 148 -306Q148 -305 147 -304Q147 -304 147 -303Q147 -302 146 -302Q146 -301 146 -300Q146 -299 146 -299Q146 -298 145 -297Q145 -297 145 -296Q145 -295 145 -294Q145 -294 145 -293ZM270 -138H256V-231Q256 -236 256 -240Q256 -244 256 -247Q256 -250 256 -253Q253 -250 251 -248Q249 -246 245 -243L230 -231L222 -241L258 -269H270ZM405 -204Q405 -188 403 -175Q401 -163 395 -154Q390 -146 382 -141Q374 -137 362 -137Q348 -137 338 -144Q329 -152 324 -167Q319 -182 319 -204Q319 -225 324 -240Q328 -255 337 -263Q347 -271 362 -271Q377 -271 387 -263Q396 -255 401 -240Q405 -225 405 -204ZM334 -204Q334 -185 337 -173Q340 -161 346 -155Q352 -149 362 -149Q372 -149 379 -155Q385 -161 388 -173Q390 -185 390 -204Q390 -222 388 -234Q385 -246 379 -252Q373 -258 362 -258Q352 -258 346 -252Q340 -246 337 -234Q334 -222 334 -204Z" /></svg>
