<?xml version="1.0" encoding="utf-8" ?>
<svg baseProfile="full" height="100%" version="1.1" viewBox="50 -418 900 418" width="100%" xmlns="http://www.w3.org/2000/svg" xmlns:ev="http://www.w3.org/2001/xml-events" xmlns:xlink="http://www.w3.org/1999/xlink"><defs /><path d="M50 -114V-304Q50 -351 83 -385Q117 -418 164 -418H735Q782 -418 815 -385Q849 -351 849 -304V-114Q849 -67 815 -33Q782 0 735 0H164Q117 0 83 -33Q50 -67 50 -114ZM88 -114Q88 -83 110 -60Q133 -38 164 -38H735Q766 -38 788 -60Q811 -83 811 -114V-304Q811 -336 788 -358Q766 -380 735 -380H164Q133 -380 110 -358Q88 -336 88 -304ZM887 -299Q888 -298 890 -298Q892 -297 893 -296Q895 -295 897 -295Q898 -294 900 -293Q902 -292 903 -291Q905 -290 906 -289Q908 -288 909 -287Q911 -286 912 -285Q914 -284 915 -283Q917 -282 918 -280Q919 -279 921 -278Q922 -277 923 -275Q924 -274 926 -273Q927 -271 928 -270Q929 -268 930 -267Q931 -266 933 -264Q934 -263 935 -261Q936 -259 937 -258Q937 -256 938 -255Q939 -253 940 -251Q941 -250 942 -248Q942 -247 943 -245Q944 -243 944 -241Q945 -240 946 -238Q946 -236 947 -234Q947 -233 947 -231Q948 -229 948 -227Q949 -226 949 -224Q949 -222 949 -220Q950 -218 950 -216Q950 -215 950 -213Q950 -211 950 -209Q950 -207 950 -205Q950 -204 950 -202Q950 -200 949 -198Q949 -196 949 -195Q949 -193 948 -191Q948 -189 947 -187Q947 -186 947 -184Q946 -182 946 -180Q945 -179 944 -177Q944 -175 943 -173Q942 -172 942 -170Q941 -168 940 -167Q939 -165 938 -164Q937 -162 937 -160Q936 -159 935 -157Q934 -156 933 -154Q931 -153 930 -151Q929 -150 928 -148Q927 -147 926 -146Q924 -144 923 -143Q922 -142 921 -140Q919 -139 918 -138Q917 -137 915 -136Q914 -134 912 -133Q911 -132 909 -131Q908 -130 906 -129Q905 -128 903 -127Q902 -126 900 -125Q898 -125 897 -124Q895 -123 893 -122Q892 -121 890 -121Q888 -120 887 -120ZM145 -292V-127Q145 -126 145 -125Q145 -124 145 -124Q145 -123 145 -122Q146 -121 146 -121Q146 -120 146 -119Q146 -118 146 -118Q147 -117 147 -116Q147 -115 147 -115Q148 -114 148 -113Q148 -113 149 -112Q149 -111 150 -110Q150 -110 150 -109Q151 -109 151 -108Q152 -107 152 -107Q153 -106 153 -105Q154 -105 154 -104Q155 -104 155 -103Q156 -103 157 -102Q157 -102 158 -101Q159 -101 159 -100Q160 -100 160 -100Q161 -99 162 -99Q163 -98 163 -98Q164 -98 165 -97Q165 -97 166 -97Q167 -97 168 -96Q168 -96 169 -96Q170 -96 171 -96Q171 -96 172 -95Q173 -95 174 -95Q174 -95 175 -95Q176 -95 177 -95H539Q540 -95 541 -95Q542 -95 542 -95Q543 -95 544 -95Q545 -96 545 -96Q546 -96 547 -96Q548 -96 548 -96Q549 -97 550 -97Q551 -97 551 -97Q552 -98 553 -98Q554 -98 554 -99Q555 -99 556 -100Q556 -100 557 -100Q558 -101 558 -101Q559 -102 559 -102Q560 -103 561 -103Q561 -104 562 -104Q562 -105 563 -105Q563 -106 564 -107Q564 -107 565 -108Q565 -109 566 -109Q566 -110 566 -110Q567 -111 567 -112Q568 -113 568 -113Q568 -114 569 -115Q569 -115 569 -116Q569 -117 570 -118Q570 -118 570 -119Q570 -120 570 -121Q571 -121 571 -122Q571 -123 571 -124Q571 -124 571 -125Q571 -126 571 -127V-292Q571 -292 571 -293Q571 -294 571 -295Q571 -295 571 -296Q571 -297 570 -298Q570 -298 570 -299Q570 -300 570 -301Q569 -301 569 -302Q569 -303 569 -304Q568 -304 568 -305Q568 -306 567 -306Q567 -307 566 -308Q566 -309 566 -309Q565 -310 565 -310Q564 -311 564 -312Q563 -312 563 -313Q562 -313 562 -314Q561 -315 561 -315Q560 -316 559 -316Q559 -317 558 -317Q558 -317 557 -318Q556 -318 556 -319Q555 -319 554 -319Q554 -320 553 -320Q552 -321 551 -321Q551 -321 550 -321Q549 -322 548 -322Q548 -322 547 -322Q546 -322 545 -323Q545 -323 544 -323Q543 -323 542 -323Q542 -323 541 -323Q540 -323 539 -323H177Q176 -323 175 -323Q174 -323 174 -323Q173 -323 172 -323Q171 -323 171 -323Q170 -322 169 -322Q168 -322 168 -322Q167 -322 166 -321Q165 -321 165 -321Q164 -321 163 -320Q163 -320 162 -319Q161 -319 160 -319Q160 -318 159 -318Q159 -317 158 -317Q157 -317 157 -316Q156 -316 155 -315Q155 -315 154 -314Q154 -313 153 -313Q153 -312 152 -312Q152 -311 151 -310Q151 -310 150 -309Q150 -309 150 -308Q149 -307 149 -306Q148 -306 148 -305Q148 -304 147 -304Q147 -303 147 -302Q147 -301 146 -301Q146 -300 146 -299Q146 -298 146 -298Q146 -297 145 -296Q145 -295 145 -295Q145 -294 145 -293Q145 -292 145 -292ZM186 -258V-149Q186 -148 186 -147Q186 -146 186 -145Q186 -144 186 -143Q186 -142 186 -141Q187 -141 187 -140Q187 -139 187 -138Q188 -137 188 -136Q188 -135 189 -134Q189 -133 189 -133Q190 -132 190 -131Q191 -130 191 -129Q192 -129 192 -128Q193 -127 193 -126Q194 -125 194 -125Q195 -124 195 -123Q196 -123 197 -122Q197 -121 198 -121Q199 -120 200 -119Q200 -119 201 -118Q202 -118 203 -117Q203 -117 204 -116Q205 -116 206 -115Q207 -115 207 -114Q208 -114 209 -114Q210 -113 211 -113Q212 -113 213 -112Q214 -112 214 -112Q215 -112 216 -112Q217 -111 218 -111Q219 -111 220 -111Q221 -111 222 -111Q223 -111 224 -111H396Q397 -111 398 -111Q399 -111 400 -111Q401 -111 402 -111Q402 -111 403 -112Q404 -112 405 -112Q406 -112 407 -112Q408 -113 409 -113Q410 -113 410 -114Q411 -114 412 -114Q413 -115 414 -115Q415 -116 415 -116Q416 -117 417 -117Q418 -118 419 -118Q419 -119 420 -119Q421 -120 421 -121Q422 -121 423 -122Q423 -123 424 -123Q425 -124 425 -125Q426 -125 426 -126Q427 -127 428 -128Q428 -129 429 -129Q429 -130 429 -131Q430 -132 430 -133Q431 -133 431 -134Q431 -135 432 -136Q432 -137 432 -138Q433 -139 433 -140Q433 -141 433 -141Q433 -142 434 -143Q434 -144 434 -145Q434 -146 434 -147Q434 -148 434 -149V-258Q434 -259 434 -260Q434 -261 434 -262Q434 -263 434 -264Q433 -265 433 -266Q433 -267 433 -268Q433 -269 432 -269Q432 -270 432 -271Q431 -272 431 -273Q431 -274 430 -275Q430 -275 429 -276Q429 -277 429 -278Q428 -279 428 -280Q427 -280 426 -281Q426 -282 425 -283Q425 -283 424 -284Q423 -285 423 -285Q422 -286 421 -287Q421 -287 420 -288Q419 -288 419 -289Q418 -289 417 -290Q416 -291 415 -291Q415 -291 414 -292Q413 -292 412 -293Q411 -293 410 -294Q410 -294 409 -294Q408 -295 407 -295Q406 -295 405 -295Q404 -296 403 -296Q402 -296 402 -296Q401 -296 400 -296Q399 -296 398 -296Q397 -296 396 -296H224Q223 -296 222 -296Q221 -296 220 -296Q219 -296 218 -296Q217 -296 216 -296Q215 -296 214 -295Q214 -295 213 -295Q212 -295 211 -294Q210 -294 209 -294Q208 -293 207 -293Q207 -292 206 -292Q205 -291 204 -291Q203 -291 203 -290Q202 -289 201 -289Q200 -288 200 -288Q199 -287 198 -287Q197 -286 197 -285Q196 -285 195 -284Q195 -283 194 -283Q194 -282 193 -281Q193 -280 192 -280Q192 -279 191 -278Q191 -277 190 -276Q190 -275 189 -275Q189 -274 189 -273Q188 -272 188 -271Q188 -270 187 -269Q187 -269 187 -268Q187 -267 186 -266Q186 -265 186 -264Q186 -263 186 -262Q186 -261 186 -260Q186 -259 186 -258ZM232 -138 285 -255H214V-269H301V-257L248 -138ZM405 -204Q405 -188 403 -175Q401 -163 395 -154Q390 -146 382 -141Q374 -137 362 -137Q348 -137 338 -144Q329 -152 324 -167Q319 -182 319 -204Q319 -225 324 -240Q328 -255 337 -263Q347 -271 362 -271Q377 -271 387 -263Q396 -255 401 -240Q405 -225 405 -204ZM334 -204Q334 -185 337 -173Q340 -161 346 -155Q352 -149 362 -149Q372 -149 379 -155Q385 -161 388 -173Q390 -185 390 -204Q390 -222 388 -234Q385 -246 379 -252Q373 -258 362 -258Q352 -258 346 -252Q340 -246 337 -234Q334 -222 334 -204Z" /></svg>
