<?xml version="1.0" encoding="utf-8" ?>
<svg baseProfile="full" height="100%" version="1.1" viewBox="50 -418 900 418" width="100%" xmlns="http://www.w3.org/2000/svg" xmlns:ev="http://www.w3.org/2001/xml-events" xmlns:xlink="http://www.w3.org/1999/xlink"><defs /><path d="M50 -114V-304Q50 -351 83 -385Q117 -418 164 -418H735Q782 -418 815 -385Q849 -351 849 -304V-114Q849 -67 815 -33Q782 0 735 0H164Q117 0 83 -33Q50 -67 50 -114ZM88 -114Q88 -83 110 -60Q133 -38 164 -38H735Q766 -38 788 -60Q811 -83 811 -114V-304Q811 -336 788 -358Q766 -380 735 -380H164Q133 -380 110 -358Q88 -336 88 -304ZM887 -299Q888 -298 890 -298Q892 -297 893 -296Q895 -295 897 -295Q898 -294 900 -293Q902 -292 903 -291Q905 -290 906 -289Q908 -288 909 -287Q911 -286 912 -285Q914 -284 915 -283Q917 -282 918 -280Q919 -279 921 -278Q922 -277 923 -275Q924 -274 926 -273Q927 -271 928 -270Q929 -268 930 -267Q931 -266 933 -264Q934 -263 935 -261Q936 -259 937 -258Q937 -256 938 -255Q939 -253 940 -251Q941 -250 942 -248Q942 -247 943 -245Q944 -243 944 -241Q945 -240 946 -238Q946 -236 947 -234Q947 -233 947 -231Q948 -229 948 -227Q949 -226 949 -224Q949 -222 949 -220Q950 -218 950 -216Q950 -215 950 -213Q950 -211 950 -209Q950 -207 950 -205Q950 -204 950 -202Q950 -200 949 -198Q949 -196 949 -195Q949 -193 948 -191Q948 -189 947 -187Q947 -186 947 -184Q946 -182 946 -180Q945 -179 944 -177Q944 -175 943 -173Q942 -172 942 -170Q941 -168 940 -167Q939 -165 938 -164Q937 -162 937 -160Q936 -159 935 -157Q934 -156 933 -154Q931 -153 930 -151Q929 -150 928 -148Q927 -147 926 -146Q924 -144 923 -143Q922 -142 921 -140Q919 -139 918 -138Q917 -137 915 -136Q914 -134 912 -133Q911 -132 909 -131Q908 -130 906 -129Q905 -128 903 -127Q902 -126 900 -125Q898 -125 897 -124Q895 -123 893 -122Q892 -121 890 -121Q888 -120 887 -120ZM145 -292V-127Q145 -126 145 -125Q145 -124 145 -124Q145 -123 145 -122Q146 -121 146 -121Q146 -120 146 -119Q146 -118 146 -118Q147 -117 147 -116Q147 -115 147 -115Q148 -114 148 -113Q148 -113 149 -112Q149 -111 150 -110Q150 -110 150 -109Q151 -109 151 -108Q152 -107 152 -107Q153 -106 153 -105Q154 -105 154 -104Q155 -104 155 -103Q156 -103 157 -102Q157 -102 158 -101Q159 -101 159 -100Q160 -100 160 -100Q161 -99 162 -99Q163 -98 163 -98Q164 -98 165 -97Q165 -97 166 -97Q167 -97 168 -96Q168 -96 169 -96Q170 -96 171 -96Q171 -96 172 -95Q173 -95 174 -95Q174 -95 175 -95Q176 -95 177 -95H418Q418 -95 419 -95Q420 -95 421 -95Q421 -95 422 -95Q423 -96 424 -96Q425 -96 425 -96Q426 -96 427 -96Q428 -97 428 -97Q429 -97 430 -97Q430 -98 431 -98Q432 -98 433 -99Q433 -99 434 -100Q435 -100 435 -100Q436 -101 436 -101Q437 -102 438 -102Q438 -103 439 -103Q439 -104 440 -104Q441 -105 441 -105Q442 -106 442 -107Q443 -107 443 -108Q444 -109 444 -109Q444 -110 445 -110Q445 -111 446 -112Q446 -113 446 -113Q447 -114 447 -115Q447 -115 447 -116Q448 -117 448 -118Q448 -118 448 -119Q449 -120 449 -121Q449 -121 449 -122Q449 -123 449 -124Q449 -124 449 -125Q449 -126 449 -127V-292Q449 -292 449 -293Q449 -294 449 -295Q449 -295 449 -296Q449 -297 449 -298Q449 -298 448 -299Q448 -300 448 -301Q448 -301 447 -302Q447 -303 447 -304Q447 -304 446 -305Q446 -306 446 -306Q445 -307 445 -308Q444 -309 444 -309Q444 -310 443 -310Q443 -311 442 -312Q442 -312 441 -313Q441 -313 440 -314Q439 -315 439 -315Q438 -316 438 -316Q437 -317 436 -317Q436 -317 435 -318Q435 -318 434 -319Q433 -319 433 -319Q432 -320 431 -320Q430 -321 430 -321Q429 -321 428 -321Q428 -322 427 -322Q426 -322 425 -322Q425 -322 424 -323Q423 -323 422 -323Q421 -323 421 -323Q420 -323 419 -323Q418 -323 418 -323H177Q176 -323 175 -323Q174 -323 174 -323Q173 -323 172 -323Q171 -323 171 -323Q170 -322 169 -322Q168 -322 168 -322Q167 -322 166 -321Q165 -321 165 -321Q164 -321 163 -320Q163 -320 162 -319Q161 -319 160 -319Q160 -318 159 -318Q159 -317 158 -317Q157 -317 157 -316Q156 -316 155 -315Q155 -315 154 -314Q154 -313 153 -313Q153 -312 152 -312Q152 -311 151 -310Q151 -310 150 -309Q150 -309 150 -308Q149 -307 149 -306Q148 -306 148 -305Q148 -304 147 -304Q147 -303 147 -302Q147 -301 146 -301Q146 -300 146 -299Q146 -298 146 -298Q146 -297 145 -296Q145 -295 145 -295Q145 -294 145 -293Q145 -292 145 -292ZM189 -258V-149Q189 -148 189 -147Q189 -146 189 -145Q190 -144 190 -143Q190 -142 190 -141Q190 -141 190 -140Q191 -139 191 -138Q191 -137 192 -136Q192 -135 192 -134Q193 -133 193 -133Q193 -132 194 -131Q194 -130 195 -129Q195 -129 196 -128Q196 -127 197 -126Q197 -125 198 -125Q199 -124 199 -123Q200 -123 200 -122Q201 -121 202 -121Q202 -120 203 -119Q204 -119 205 -118Q205 -118 206 -117Q207 -117 208 -116Q209 -116 209 -115Q210 -115 211 -114Q212 -114 213 -114Q214 -113 214 -113Q215 -113 216 -112Q217 -112 218 -112Q219 -112 220 -112Q221 -111 222 -111Q223 -111 224 -111Q225 -111 225 -111Q226 -111 227 -111H396Q397 -111 398 -111Q399 -111 399 -111Q400 -111 401 -111Q402 -111 403 -112Q404 -112 405 -112Q406 -112 407 -112Q408 -113 409 -113Q409 -113 410 -114Q411 -114 412 -114Q413 -115 414 -115Q415 -116 415 -116Q416 -117 417 -117Q418 -118 418 -118Q419 -119 420 -119Q421 -120 421 -121Q422 -121 423 -122Q423 -123 424 -123Q425 -124 425 -125Q426 -125 426 -126Q427 -127 427 -128Q428 -129 428 -129Q429 -130 429 -131Q430 -132 430 -133Q431 -133 431 -134Q431 -135 432 -136Q432 -137 432 -138Q432 -139 433 -140Q433 -141 433 -141Q433 -142 433 -143Q434 -144 434 -145Q434 -146 434 -147Q434 -148 434 -149V-258Q434 -259 434 -260Q434 -261 434 -262Q434 -263 433 -264Q433 -265 433 -266Q433 -267 433 -268Q432 -269 432 -269Q432 -270 432 -271Q431 -272 431 -273Q431 -274 430 -275Q430 -275 429 -276Q429 -277 428 -278Q428 -279 427 -280Q427 -280 426 -281Q426 -282 425 -283Q425 -283 424 -284Q423 -285 423 -285Q422 -286 421 -287Q421 -287 420 -288Q419 -288 418 -289Q418 -289 417 -290Q416 -291 415 -291Q415 -291 414 -292Q413 -292 412 -293Q411 -293 410 -294Q409 -294 409 -294Q408 -295 407 -295Q406 -295 405 -295Q404 -296 403 -296Q402 -296 401 -296Q400 -296 399 -296Q399 -296 398 -296Q397 -296 396 -296H227Q226 -296 225 -296Q225 -296 224 -296Q223 -296 222 -296Q221 -296 220 -296Q219 -296 218 -295Q217 -295 216 -295Q215 -295 214 -294Q214 -294 213 -294Q212 -293 211 -293Q210 -292 209 -292Q209 -291 208 -291Q207 -291 206 -290Q205 -289 205 -289Q204 -288 203 -288Q202 -287 202 -287Q201 -286 200 -285Q200 -285 199 -284Q199 -283 198 -283Q197 -282 197 -281Q196 -280 196 -280Q195 -279 195 -278Q194 -277 194 -276Q193 -275 193 -275Q193 -274 192 -273Q192 -272 192 -271Q191 -270 191 -269Q191 -269 190 -268Q190 -267 190 -266Q190 -265 190 -264Q190 -263 189 -262Q189 -261 189 -260Q189 -259 189 -258ZM256 -218Q269 -218 279 -214Q289 -209 294 -200Q300 -192 300 -180Q300 -166 294 -157Q288 -147 277 -142Q266 -137 251 -137Q241 -137 232 -138Q224 -140 218 -144V-158Q224 -154 233 -152Q243 -149 251 -149Q261 -149 269 -152Q276 -156 280 -162Q285 -168 285 -178Q285 -191 277 -198Q269 -205 251 -205Q246 -205 239 -205Q233 -204 228 -203L221 -208L226 -269H291V-255H239L235 -216Q239 -217 244 -217Q249 -218 256 -218ZM405 -204Q405 -188 403 -175Q401 -163 395 -154Q390 -146 382 -141Q374 -137 362 -137Q348 -137 338 -144Q329 -152 324 -167Q319 -182 319 -204Q319 -225 324 -240Q328 -255 337 -263Q347 -271 362 -271Q377 -271 387 -263Q396 -255 401 -240Q405 -225 405 -204ZM334 -204Q334 -185 337 -173Q340 -161 346 -155Q352 -149 362 -149Q372 -149 379 -155Q385 -161 388 -173Q390 -185 390 -204Q390 -222 388 -234Q385 -246 379 -252Q373 -258 362 -258Q352 -258 346 -252Q340 -246 337 -234Q334 -222 334 -204Z" /></svg>
