<?xml version="1.0" encoding="utf-8" ?>
<svg baseProfile="full" height="100%" version="1.1" viewBox="50 0 900 418" width="100%" xmlns="http://www.w3.org/2000/svg" xmlns:ev="http://www.w3.org/2001/xml-events" xmlns:xlink="http://www.w3.org/1999/xlink"><defs /><path d="M50 114V304Q50 351 83 385Q117 418 164 418H735Q782 418 815 385Q849 351 849 304V114Q849 67 815 33Q782 0 735 0H164Q117 0 83 33Q50 67 50 114ZM88 114Q88 83 110 60Q133 38 164 38H735Q766 38 788 60Q811 83 811 114V304Q811 336 788 358Q766 380 735 380H164Q133 380 110 358Q88 336 88 304ZM887 299Q888 298 890 298Q892 297 893 296Q895 295 897 295Q898 294 900 293Q902 292 903 291Q905 290 906 289Q908 288 909 287Q911 286 912 285Q914 284 915 283Q917 282 918 280Q919 279 921 278Q922 277 923 275Q924 274 926 273Q927 271 928 270Q929 268 930 267Q931 266 933 264Q934 263 935 261Q936 259 937 258Q937 256 938 255Q939 253 940 251Q941 250 942 248Q942 247 943 245Q944 243 944 241Q945 240 946 238Q946 236 947 234Q947 233 947 231Q948 229 948 227Q949 226 949 224Q949 222 949 220Q950 218 950 216Q950 215 950 213Q950 211 950 209Q950 207 950 205Q950 204 950 202Q950 200 949 198Q949 196 949 195Q949 193 948 191Q948 189 947 187Q947 186 947 184Q946 182 946 180Q945 179 944 177Q944 175 943 173Q942 172 942 170Q941 168 940 167Q939 165 938 164Q937 162 937 160Q936 159 935 157Q934 156 933 154Q931 153 930 151Q929 150 928 148Q927 147 926 146Q924 144 923 143Q922 142 921 140Q919 139 918 138Q917 137 915 136Q914 134 912 133Q911 132 909 131Q908 130 906 129Q905 128 903 127Q902 126 900 125Q898 125 897 124Q895 123 893 122Q892 121 890 121Q888 120 887 120ZM145 127V292Q145 292 145 293Q145 294 145 295Q145 295 145 296Q146 297 146 298Q146 298 146 299Q146 300 146 301Q147 301 147 302Q147 303 147 304Q148 304 148 305Q148 306 149 306Q149 307 150 308Q150 309 150 309Q151 310 151 310Q152 311 152 312Q153 312 153 313Q154 313 154 314Q155 315 155 315Q156 316 157 316Q157 317 158 317Q159 317 159 318Q160 318 160 319Q161 319 162 319Q163 320 163 320Q164 321 165 321Q165 321 166 321Q167 322 168 322Q168 322 169 322Q170 322 171 323Q171 323 172 323Q173 323 174 323Q174 323 175 323Q176 323 177 323H235Q236 323 237 323Q237 323 238 323Q239 323 240 323Q240 323 241 323Q242 322 243 322Q244 322 244 322Q245 322 246 321Q246 321 247 321Q248 321 249 320Q249 320 250 319Q251 319 251 319Q252 318 253 318Q253 317 254 317Q255 317 255 316Q256 316 256 315Q257 315 257 314Q258 313 259 313Q259 312 260 312Q260 311 261 310Q261 310 261 309Q262 309 262 308Q263 307 263 306Q263 306 264 305Q264 304 264 304Q265 303 265 302Q265 301 265 301Q266 300 266 299Q266 298 266 298Q266 297 266 296Q267 295 267 295Q267 294 267 293Q267 292 267 292V127Q267 126 267 125Q267 124 267 124Q267 123 266 122Q266 121 266 121Q266 120 266 119Q266 118 265 118Q265 117 265 116Q265 115 264 115Q264 114 264 113Q263 113 263 112Q263 111 262 110Q262 110 261 109Q261 109 261 108Q260 107 260 107Q259 106 259 105Q258 105 257 104Q257 104 256 103Q256 103 255 102Q255 102 254 101Q253 101 253 100Q252 100 251 100Q251 99 250 99Q249 98 249 98Q248 98 247 97Q246 97 246 97Q245 97 244 96Q244 96 243 96Q242 96 241 96Q240 96 240 95Q239 95 238 95Q237 95 237 95Q236 95 235 95H177Q176 95 175 95Q174 95 174 95Q173 95 172 95Q171 96 171 96Q170 96 169 96Q168 96 168 96Q167 97 166 97Q165 97 165 97Q164 98 163 98Q163 98 162 99Q161 99 160 100Q160 100 159 100Q159 101 158 101Q157 102 157 102Q156 103 155 103Q155 104 154 104Q154 105 153 105Q153 106 152 107Q152 107 151 108Q151 109 150 109Q150 110 150 110Q149 111 149 112Q148 113 148 113Q148 114 147 115Q147 115 147 116Q147 117 146 118Q146 118 146 119Q146 120 146 121Q146 121 145 122Q145 123 145 124Q145 124 145 125Q145 126 145 127Z" /></svg>
