<?xml version="1.0" encoding="utf-8" ?>
<svg baseProfile="full" height="100%" version="1.1" viewBox="50 -418 900 418" width="100%" xmlns="http://www.w3.org/2000/svg" xmlns:ev="http://www.w3.org/2001/xml-events" xmlns:xlink="http://www.w3.org/1999/xlink"><defs /><path d="M50 -114V-304Q50 -351 83 -385Q117 -418 164 -418H735Q782 -418 815 -385Q849 -351 849 -304V-114Q849 -67 815 -33Q782 0 735 0H164Q117 0 83 -33Q50 -67 50 -114ZM88 -114Q88 -83 110 -60Q133 -38 164 -38H735Q766 -38 788 -60Q811 -83 811 -114V-304Q811 -336 788 -358Q766 -380 735 -380H164Q133 -380 110 -358Q88 -336 88 -304ZM887 -299Q888 -298 890 -298Q892 -297 893 -296Q895 -295 897 -295Q898 -294 900 -293Q902 -292 903 -291Q905 -290 906 -289Q908 -288 909 -287Q911 -286 912 -285Q914 -284 915 -283Q917 -282 918 -280Q919 -279 921 -278Q922 -277 923 -275Q924 -274 926 -273Q927 -271 928 -270Q929 -268 930 -267Q931 -266 933 -264Q934 -263 935 -261Q936 -259 937 -258Q937 -256 938 -255Q939 -253 940 -251Q941 -250 942 -248Q942 -247 943 -245Q944 -243 944 -241Q945 -240 946 -238Q946 -236 947 -234Q947 -233 947 -231Q948 -229 948 -227Q949 -226 949 -224Q949 -222 949 -220Q950 -218 950 -216Q950 -215 950 -213Q950 -211 950 -209Q950 -207 950 -205Q950 -204 950 -202Q950 -200 949 -198Q949 -196 949 -195Q949 -193 948 -191Q948 -189 947 -187Q947 -186 947 -184Q946 -182 946 -180Q945 -179 944 -177Q944 -175 943 -173Q942 -172 942 -170Q941 -168 940 -167Q939 -165 938 -164Q937 -162 937 -160Q936 -159 935 -157Q934 -156 933 -154Q931 -153 930 -151Q929 -150 928 -148Q927 -147 926 -146Q924 -144 923 -143Q922 -142 921 -140Q919 -139 918 -138Q917 -137 915 -136Q914 -134 912 -133Q911 -132 909 -131Q908 -130 906 -129Q905 -128 903 -127Q902 -126 900 -125Q898 -125 897 -124Q895 -123 893 -122Q892 -121 890 -121Q888 -120 887 -120ZM145 -292V-127Q145 -126 145 -125Q145 -124 145 -124Q145 -123 145 -122Q146 -121 146 -121Q146 -120 146 -119Q146 -118 146 -118Q147 -117 147 -116Q147 -115 147 -115Q148 -114 148 -113Q148 -113 149 -112Q149 -111 150 -110Q150 -110 150 -109Q151 -109 151 -108Q152 -107 152 -107Q153 -106 153 -105Q154 -105 154 -104Q155 -104 155 -103Q156 -103 157 -102Q157 -102 158 -101Q159 -101 159 -100Q160 -100 160 -100Q161 -99 162 -99Q163 -98 163 -98Q164 -98 165 -97Q165 -97 166 -97Q167 -97 168 -96Q168 -96 169 -96Q170 -96 171 -96Q171 -96 172 -95Q173 -95 174 -95Q174 -95 175 -95Q176 -95 177 -95H357Q359 -95 361 -95Q363 -96 365 -96Q367 -97 369 -97Q371 -98 373 -99Q374 -100 376 -102Q378 -103 379 -104Q381 -106 382 -107Q383 -109 384 -111H219Q218 -111 217 -111Q216 -111 215 -111Q214 -111 213 -111Q213 -111 212 -112Q211 -112 210 -112Q209 -112 208 -112Q207 -113 206 -113Q205 -113 205 -114Q204 -114 203 -114Q202 -115 201 -115Q200 -116 200 -116Q199 -117 198 -117Q197 -118 196 -118Q196 -119 195 -119Q194 -120 194 -121Q193 -121 192 -122Q192 -123 191 -123Q190 -124 190 -125Q189 -125 189 -126Q188 -127 187 -128Q187 -129 186 -129Q186 -130 186 -131Q185 -132 185 -133Q184 -133 184 -134Q184 -135 183 -136Q183 -137 183 -138Q182 -139 182 -140Q182 -141 182 -141Q182 -142 181 -143Q181 -144 181 -145Q181 -146 181 -147Q181 -148 181 -149V-258Q181 -259 181 -260Q181 -261 181 -262Q181 -263 181 -264Q182 -265 182 -266Q182 -267 182 -268Q182 -269 183 -269Q183 -270 183 -271Q184 -272 184 -273Q184 -274 185 -275Q185 -275 186 -276Q186 -277 186 -278Q187 -279 187 -280Q188 -280 189 -281Q189 -282 190 -283Q190 -283 191 -284Q192 -285 192 -285Q193 -286 194 -287Q194 -287 195 -288Q196 -288 196 -289Q197 -289 198 -290Q199 -291 200 -291Q200 -291 201 -292Q202 -292 203 -293Q204 -293 205 -294Q205 -294 206 -294Q207 -295 208 -295Q209 -295 210 -295Q211 -296 212 -296Q213 -296 213 -296Q214 -296 215 -296Q216 -296 217 -296Q218 -296 219 -296H388Q388 -298 388 -299Q387 -301 387 -302Q386 -303 386 -304Q385 -306 384 -307Q384 -308 383 -309Q382 -311 381 -312Q380 -313 379 -314Q378 -315 377 -316Q376 -317 375 -317Q374 -318 373 -319Q372 -320 370 -320Q369 -321 368 -321Q366 -322 365 -322Q364 -322 362 -323Q361 -323 360 -323Q358 -323 357 -323H177Q176 -323 175 -323Q174 -323 174 -323Q173 -323 172 -323Q171 -323 171 -323Q170 -322 169 -322Q168 -322 168 -322Q167 -322 166 -321Q165 -321 165 -321Q164 -321 163 -320Q163 -320 162 -319Q161 -319 160 -319Q160 -318 159 -318Q159 -317 158 -317Q157 -317 157 -316Q156 -316 155 -315Q155 -315 154 -314Q154 -313 153 -313Q153 -312 152 -312Q152 -311 151 -310Q151 -310 150 -309Q150 -309 150 -308Q149 -307 149 -306Q148 -306 148 -305Q148 -304 147 -304Q147 -303 147 -302Q147 -301 146 -301Q146 -300 146 -299Q146 -298 146 -298Q146 -297 145 -296Q145 -295 145 -295Q145 -294 145 -293Q145 -292 145 -292ZM307 -169H287V-138H273V-169H210V-181L272 -269H287V-182H307ZM273 -182V-225Q273 -229 273 -233Q273 -237 273 -241Q273 -244 274 -247Q274 -250 274 -253H273Q271 -250 269 -246Q267 -242 265 -239L225 -182ZM405 -204Q405 -188 403 -175Q401 -163 395 -154Q390 -146 382 -141Q374 -137 362 -137Q348 -137 338 -144Q329 -152 324 -167Q319 -182 319 -204Q319 -225 324 -240Q328 -255 337 -263Q347 -271 362 -271Q377 -271 387 -263Q396 -255 401 -240Q405 -225 405 -204ZM334 -204Q334 -185 337 -173Q340 -161 346 -155Q352 -149 362 -149Q372 -149 379 -155Q385 -161 388 -173Q390 -185 390 -204Q390 -222 388 -234Q385 -246 379 -252Q373 -258 362 -258Q352 -258 346 -252Q340 -246 337 -234Q334 -222 334 -204Z" /></svg>
