<?xml version="1.0" encoding="utf-8" ?>
<svg baseProfile="full" height="100%" version="1.1" viewBox="50 0 900 418" width="100%" xmlns="http://www.w3.org/2000/svg" xmlns:ev="http://www.w3.org/2001/xml-events" xmlns:xlink="http://www.w3.org/1999/xlink"><defs /><path d="M50 114V304Q50 351 83 385Q117 418 164 418H735Q782 418 815 385Q849 351 849 304V114Q849 67 815 33Q782 0 735 0H164Q117 0 83 33Q50 67 50 114ZM88 114Q88 83 110 60Q133 38 164 38H735Q766 38 788 60Q811 83 811 114V304Q811 336 788 358Q766 380 735 380H164Q133 380 110 358Q88 336 88 304ZM887 299Q888 298 890 298Q892 297 893 296Q895 295 897 295Q898 294 900 293Q902 292 903 291Q905 290 906 289Q908 288 909 287Q911 286 912 285Q914 284 915 283Q917 282 918 280Q919 279 921 278Q922 277 923 275Q924 274 926 273Q927 271 928 270Q929 268 930 267Q931 266 933 264Q934 263 935 261Q936 259 937 258Q937 256 938 255Q939 253 940 251Q941 250 942 248Q942 247 943 245Q944 243 944 241Q945 240 946 238Q946 236 947 234Q947 233 947 231Q948 229 948 227Q949 226 949 224Q949 222 949 220Q950 218 950 216Q950 215 950 213Q950 211 950 209Q950 207 950 205Q950 204 950 202Q950 200 949 198Q949 196 949 195Q949 193 948 191Q948 189 947 187Q947 186 947 184Q946 182 946 180Q945 179 944 177Q944 175 943 173Q942 172 942 170Q941 168 940 167Q939 165 938 164Q937 162 937 160Q936 159 935 157Q934 156 933 154Q931 153 930 151Q929 150 928 148Q927 147 926 146Q924 144 923 143Q922 142 921 140Q919 139 918 138Q917 137 915 136Q914 134 912 133Q911 132 909 131Q908 130 906 129Q905 128 903 127Q902 126 900 125Q898 125 897 124Q895 123 893 122Q892 121 890 121Q888 120 887 120ZM145 125V293Q145 294 145 294Q145 295 145 296Q145 297 145 297Q146 298 146 299Q146 299 146 300Q146 301 146 302Q147 302 147 303Q147 304 147 304Q148 305 148 306Q148 306 149 307Q149 308 149 308Q150 309 150 310Q151 310 151 311Q152 312 152 312Q152 313 153 313Q153 314 154 314Q155 315 155 315Q156 316 156 316Q157 317 157 317Q158 318 159 318Q159 319 160 319Q160 319 161 320Q162 320 162 320Q163 321 164 321Q165 321 165 321Q166 322 167 322Q167 322 168 322Q169 323 170 323Q170 323 171 323Q172 323 173 323Q173 323 174 323Q175 323 175 323Q176 323 177 323Q178 323 178 323Q179 323 180 323Q181 323 181 323Q182 323 183 322Q184 322 184 322Q185 322 186 321Q186 321 187 321Q188 321 189 320Q189 320 190 320Q190 319 191 319Q192 319 192 318Q193 318 194 317Q194 317 195 316Q195 316 196 315Q196 315 197 314Q198 314 198 313Q199 313 199 312Q199 312 200 311Q200 310 201 310Q201 309 202 308Q202 308 202 307Q203 306 203 306Q203 305 204 304Q204 304 204 303Q204 302 205 302Q205 301 205 300Q205 299 205 299Q205 298 206 297Q206 297 206 296Q206 295 206 294Q206 294 206 293V125Q206 125 206 124Q206 123 206 123Q206 122 206 121Q205 120 205 120Q205 119 205 118Q205 117 205 117Q204 116 204 115Q204 115 204 114Q203 113 203 112Q203 112 202 111Q202 110 202 110Q201 109 201 109Q200 108 200 107Q199 107 199 106Q199 106 198 105Q198 105 197 104Q196 103 196 103Q195 102 195 102Q194 102 194 101Q193 101 192 100Q192 100 191 99Q190 99 190 99Q189 98 189 98Q188 98 187 97Q186 97 186 97Q185 97 184 96Q184 96 183 96Q182 96 181 96Q181 96 180 95Q179 95 178 95Q178 95 177 95Q176 95 175 95Q175 95 174 95Q173 95 173 95Q172 95 171 95Q170 96 170 96Q169 96 168 96Q167 96 167 96Q166 97 165 97Q165 97 164 97Q163 98 162 98Q162 98 161 99Q160 99 160 99Q159 100 159 100Q158 101 157 101Q157 102 156 102Q156 102 155 103Q155 103 154 104Q153 105 153 105Q152 106 152 106Q152 107 151 107Q151 108 150 109Q150 109 149 110Q149 110 149 111Q148 112 148 112Q148 113 147 114Q147 115 147 115Q147 116 146 117Q146 117 146 118Q146 119 146 120Q146 120 145 121Q145 122 145 123Q145 123 145 124Q145 125 145 125Z" /></svg>
