<?xml version="1.0" encoding="utf-8" ?>
<svg baseProfile="full" height="100%" version="1.1" viewBox="50 0 900 418" width="100%" xmlns="http://www.w3.org/2000/svg" xmlns:ev="http://www.w3.org/2001/xml-events" xmlns:xlink="http://www.w3.org/1999/xlink"><defs /><path d="M50 114V304Q50 351 83 385Q117 418 164 418H735Q782 418 815 385Q849 351 849 304V114Q849 67 815 33Q782 0 735 0H164Q117 0 83 33Q50 67 50 114ZM88 114Q88 83 110 60Q133 38 164 38H735Q766 38 788 60Q811 83 811 114V304Q811 336 788 358Q766 380 735 380H164Q133 380 110 358Q88 336 88 304ZM887 299Q888 298 890 298Q892 297 893 296Q895 295 897 295Q898 294 900 293Q902 292 903 291Q905 290 906 289Q908 288 909 287Q911 286 912 285Q914 284 915 283Q917 282 918 280Q919 279 921 278Q922 277 923 275Q924 274 926 273Q927 271 928 270Q929 268 930 267Q931 266 933 264Q934 263 935 261Q936 259 937 258Q937 256 938 255Q939 253 940 251Q941 250 942 248Q942 247 943 245Q944 243 944 241Q945 240 946 238Q946 236 947 234Q947 233 947 231Q948 229 948 227Q949 226 949 224Q949 222 949 220Q950 218 950 216Q950 215 950 213Q950 211 950 209Q950 207 950 205Q950 204 950 202Q950 200 949 198Q949 196 949 195Q949 193 948 191Q948 189 947 187Q947 186 947 184Q946 182 946 180Q945 179 944 177Q944 175 943 173Q942 172 942 170Q941 168 940 167Q939 165 938 164Q937 162 937 160Q936 159 935 157Q934 156 933 154Q931 153 930 151Q929 150 928 148Q927 147 926 146Q924 144 923 143Q922 142 921 140Q919 139 918 138Q917 137 915 136Q914 134 912 133Q911 132 909 131Q908 130 906 129Q905 128 903 127Q902 126 900 125Q898 125 897 124Q895 123 893 122Q892 121 890 121Q888 120 887 120ZM145 127V292Q145 292 145 293Q145 294 145 295Q145 295 145 296Q146 297 146 298Q146 298 146 299Q146 300 146 301Q147 301 147 302Q147 303 147 304Q148 304 148 305Q148 306 149 306Q149 307 150 308Q150 309 150 309Q151 310 151 310Q152 311 152 312Q153 312 153 313Q154 313 154 314Q155 315 155 315Q156 316 157 316Q157 317 158 317Q159 317 159 318Q160 318 160 319Q161 319 162 319Q163 320 163 320Q164 321 165 321Q165 321 166 321Q167 322 168 322Q168 322 169 322Q170 322 171 323Q171 323 172 323Q173 323 174 323Q174 323 175 323Q176 323 177 323H418Q418 323 419 323Q420 323 421 323Q421 323 422 323Q423 323 424 323Q425 322 425 322Q426 322 427 322Q428 322 428 321Q429 321 430 321Q430 321 431 320Q432 320 433 319Q433 319 434 319Q435 318 435 318Q436 317 436 317Q437 317 438 316Q438 316 439 315Q439 315 440 314Q441 313 441 313Q442 312 442 312Q443 311 443 310Q444 310 444 309Q444 309 445 308Q445 307 446 306Q446 306 446 305Q447 304 447 304Q447 303 447 302Q448 301 448 301Q448 300 448 299Q449 298 449 298Q449 297 449 296Q449 295 449 295Q449 294 449 293Q449 292 449 292V127Q449 126 449 125Q449 124 449 124Q449 123 449 122Q449 121 449 121Q449 120 448 119Q448 118 448 118Q448 117 447 116Q447 115 447 115Q447 114 446 113Q446 113 446 112Q445 111 445 110Q444 110 444 109Q444 109 443 108Q443 107 442 107Q442 106 441 105Q441 105 440 104Q439 104 439 103Q438 103 438 102Q437 102 436 101Q436 101 435 100Q435 100 434 100Q433 99 433 99Q432 98 431 98Q430 98 430 97Q429 97 428 97Q428 97 427 96Q426 96 425 96Q425 96 424 96Q423 96 422 95Q421 95 421 95Q420 95 419 95Q418 95 418 95H177Q176 95 175 95Q174 95 174 95Q173 95 172 95Q171 96 171 96Q170 96 169 96Q168 96 168 96Q167 97 166 97Q165 97 165 97Q164 98 163 98Q163 98 162 99Q161 99 160 100Q160 100 159 100Q159 101 158 101Q157 102 157 102Q156 103 155 103Q155 104 154 104Q154 105 153 105Q153 106 152 107Q152 107 151 108Q151 109 150 109Q150 110 150 110Q149 111 149 112Q148 113 148 113Q148 114 147 115Q147 115 147 116Q147 117 146 118Q146 118 146 119Q146 120 146 121Q146 121 145 122Q145 123 145 124Q145 124 145 125Q145 126 145 127Z" /></svg>
