<?xml version="1.0" encoding="utf-8" ?>
<svg baseProfile="full" height="100%" version="1.1" viewBox="50 -418 900 418" width="100%" xmlns="http://www.w3.org/2000/svg" xmlns:ev="http://www.w3.org/2001/xml-events" xmlns:xlink="http://www.w3.org/1999/xlink"><defs /><path d="M50 -114V-304Q50 -351 83 -385Q117 -418 164 -418H735Q782 -418 815 -385Q849 -351 849 -304V-114Q849 -67 815 -33Q782 0 735 0H164Q117 0 83 -33Q50 -67 50 -114ZM88 -114Q88 -83 110 -60Q133 -38 164 -38H735Q766 -38 788 -60Q811 -83 811 -114V-304Q811 -336 788 -358Q766 -380 735 -380H164Q133 -380 110 -358Q88 -336 88 -304ZM887 -299Q888 -298 890 -298Q892 -297 893 -296Q895 -295 897 -295Q898 -294 900 -293Q902 -292 903 -291Q905 -290 906 -289Q908 -288 909 -287Q911 -286 912 -285Q914 -284 915 -283Q917 -282 918 -280Q919 -279 921 -278Q922 -277 923 -275Q924 -274 926 -273Q927 -271 928 -270Q929 -268 930 -267Q931 -266 933 -264Q934 -263 935 -261Q936 -259 937 -258Q937 -256 938 -255Q939 -253 940 -251Q941 -250 942 -248Q942 -247 943 -245Q944 -243 944 -241Q945 -240 946 -238Q946 -236 947 -234Q947 -233 947 -231Q948 -229 948 -227Q949 -226 949 -224Q949 -222 949 -220Q950 -218 950 -216Q950 -215 950 -213Q950 -211 950 -209Q950 -207 950 -205Q950 -204 950 -202Q950 -200 949 -198Q949 -196 949 -195Q949 -193 948 -191Q948 -189 947 -187Q947 -186 947 -184Q946 -182 946 -180Q945 -179 944 -177Q944 -175 943 -173Q942 -172 942 -170Q941 -168 940 -167Q939 -165 938 -164Q937 -162 937 -160Q936 -159 935 -157Q934 -156 933 -154Q931 -153 930 -151Q929 -150 928 -148Q927 -147 926 -146Q924 -144 923 -143Q922 -142 921 -140Q919 -139 918 -138Q917 -137 915 -136Q914 -134 912 -133Q911 -132 909 -131Q908 -130 906 -129Q905 -128 903 -127Q902 -126 900 -125Q898 -125 897 -124Q895 -123 893 -122Q892 -121 890 -121Q888 -120 887 -120ZM145 -127V-292Q145 -292 145 -293Q145 -294 145 -295Q145 -295 145 -296Q146 -297 146 -298Q146 -298 146 -299Q146 -300 146 -301Q147 -301 147 -302Q147 -303 147 -304Q148 -304 148 -305Q148 -306 149 -306Q149 -307 150 -308Q150 -309 150 -309Q151 -310 151 -310Q152 -311 152 -312Q153 -312 153 -313Q154 -313 154 -314Q155 -315 155 -315Q156 -316 157 -316Q157 -317 158 -317Q159 -317 159 -318Q160 -318 160 -319Q161 -319 162 -319Q163 -320 163 -320Q164 -321 165 -321Q165 -321 166 -321Q167 -322 168 -322Q168 -322 169 -322Q170 -322 171 -323Q171 -323 172 -323Q173 -323 174 -323Q174 -323 175 -323Q176 -323 177 -323H296Q297 -323 297 -323Q298 -323 299 -323Q300 -323 301 -323Q301 -323 302 -323Q303 -322 304 -322Q304 -322 305 -322Q306 -322 307 -321Q307 -321 308 -321Q309 -321 309 -320Q310 -320 311 -319Q312 -319 312 -319Q313 -318 314 -318Q314 -317 315 -317Q315 -317 316 -316Q317 -316 317 -315Q318 -315 318 -314Q319 -313 319 -313Q320 -312 320 -312Q321 -311 321 -310Q322 -310 322 -309Q323 -309 323 -308Q323 -307 324 -306Q324 -306 325 -305Q325 -304 325 -304Q325 -303 326 -302Q326 -301 326 -301Q326 -300 327 -299Q327 -298 327 -298Q327 -297 327 -296Q327 -295 327 -295Q328 -294 328 -293Q328 -292 328 -292V-127Q328 -126 328 -125Q328 -124 327 -124Q327 -123 327 -122Q327 -121 327 -121Q327 -120 327 -119Q326 -118 326 -118Q326 -117 326 -116Q325 -115 325 -115Q325 -114 325 -113Q324 -113 324 -112Q323 -111 323 -110Q323 -110 322 -109Q322 -109 321 -108Q321 -107 320 -107Q320 -106 319 -105Q319 -105 318 -104Q318 -104 317 -103Q317 -103 316 -102Q315 -102 315 -101Q314 -101 314 -100Q313 -100 312 -100Q312 -99 311 -99Q310 -98 309 -98Q309 -98 308 -97Q307 -97 307 -97Q306 -97 305 -96Q304 -96 304 -96Q303 -96 302 -96Q301 -96 301 -95Q300 -95 299 -95Q298 -95 297 -95Q297 -95 296 -95H177Q176 -95 175 -95Q174 -95 174 -95Q173 -95 172 -95Q171 -96 171 -96Q170 -96 169 -96Q168 -96 168 -96Q167 -97 166 -97Q165 -97 165 -97Q164 -98 163 -98Q163 -98 162 -99Q161 -99 160 -100Q160 -100 159 -100Q159 -101 158 -101Q157 -102 157 -102Q156 -103 155 -103Q155 -104 154 -104Q154 -105 153 -105Q153 -106 152 -107Q152 -107 151 -108Q151 -109 150 -109Q150 -110 150 -110Q149 -111 149 -112Q148 -113 148 -113Q148 -114 147 -115Q147 -115 147 -116Q147 -117 146 -118Q146 -118 146 -119Q146 -120 146 -121Q146 -121 145 -122Q145 -123 145 -124Q145 -124 145 -125Q145 -126 145 -127Z" /></svg>
