<?xml version="1.0" encoding="utf-8" ?>
<svg baseProfile="full" height="100%" version="1.1" viewBox="50 -418 900 418" width="100%" xmlns="http://www.w3.org/2000/svg" xmlns:ev="http://www.w3.org/2001/xml-events" xmlns:xlink="http://www.w3.org/1999/xlink"><defs /><path d="M50 -304V-114Q50 -67 83 -33Q117 0 164 0H735Q782 0 815 -33Q849 -67 849 -114V-304Q849 -351 815 -385Q782 -418 735 -418H164Q117 -418 83 -385Q50 -351 50 -304ZM110 -60Q88 -83 88 -114V-304Q88 -336 110 -358Q133 -380 164 -380H735Q766 -380 788 -358Q811 -336 811 -304V-114Q811 -83 788 -60Q766 -38 735 -38H164Q133 -38 110 -60ZM887 -299Q888 -298 890 -298Q892 -297 893 -296Q895 -295 897 -295Q898 -294 900 -293Q902 -292 903 -291Q905 -290 906 -289Q908 -288 909 -287Q911 -286 912 -285Q914 -284 915 -283Q917 -282 918 -280Q919 -279 921 -278Q922 -277 923 -275Q924 -274 926 -273Q927 -271 928 -270Q929 -268 930 -267Q931 -266 933 -264Q934 -263 935 -261Q936 -259 937 -258Q937 -256 938 -255Q939 -253 940 -251Q941 -250 942 -248Q942 -247 943 -245Q944 -243 944 -241Q945 -240 946 -238Q946 -236 947 -234Q947 -233 947 -231Q948 -229 948 -227Q949 -226 949 -224Q949 -222 949 -220Q950 -218 950 -216Q950 -215 950 -213Q950 -211 950 -209Q950 -207 950 -205Q950 -204 950 -202Q950 -200 949 -198Q949 -196 949 -195Q949 -193 948 -191Q948 -189 947 -187Q947 -186 947 -184Q946 -182 946 -180Q945 -179 944 -177Q944 -175 943 -173Q942 -172 942 -170Q941 -168 940 -167Q939 -165 938 -164Q937 -162 937 -160Q936 -159 935 -157Q934 -156 933 -154Q931 -153 930 -151Q929 -150 928 -148Q927 -147 926 -146Q924 -144 923 -143Q922 -142 921 -140Q919 -139 918 -138Q917 -137 915 -136Q914 -134 912 -133Q911 -132 909 -131Q908 -130 906 -129Q905 -128 903 -127Q902 -126 900 -125Q898 -125 897 -124Q895 -123 893 -122Q892 -121 890 -121Q888 -120 887 -120ZM145 -127V-292Q145 -292 145 -293Q145 -294 145 -295Q145 -295 145 -296Q146 -297 146 -298Q146 -298 146 -299Q146 -300 146 -301Q147 -301 147 -302Q147 -303 147 -304Q148 -304 148 -305Q148 -306 149 -306Q149 -307 150 -308Q150 -309 150 -309Q151 -310 151 -310Q152 -311 152 -312Q153 -312 153 -313Q154 -313 154 -314Q155 -315 155 -315Q156 -316 157 -316Q157 -317 158 -317Q159 -317 159 -318Q160 -318 160 -319Q161 -319 162 -319Q163 -320 163 -320Q164 -321 165 -321Q165 -321 166 -321Q167 -322 168 -322Q168 -322 169 -322Q170 -322 171 -323Q171 -323 172 -323Q173 -323 174 -323Q174 -323 175 -323Q176 -323 177 -323H600Q601 -323 602 -323Q602 -323 603 -323Q604 -323 605 -323Q606 -323 606 -323Q607 -322 608 -322Q609 -322 609 -322Q610 -322 611 -321Q612 -321 612 -321Q613 -321 614 -320Q614 -320 615 -319Q616 -319 616 -319Q617 -318 618 -318Q618 -317 619 -317Q620 -317 620 -316Q621 -316 621 -315Q622 -315 623 -314Q623 -313 624 -313Q624 -312 625 -312Q625 -311 626 -310Q626 -310 626 -309Q627 -309 627 -308Q628 -307 628 -306Q628 -306 629 -305Q629 -304 629 -304Q630 -303 630 -302Q630 -301 630 -301Q631 -300 631 -299Q631 -298 631 -298Q631 -297 631 -296Q632 -295 632 -295Q632 -294 632 -293Q632 -292 632 -292V-263L592 -213Q588 -207 587 -201V-200V-199Q589 -183 605 -181H606H632V-175L616 -132L615 -131Q613 -122 617 -115Q620 -110 625 -107Q624 -106 623 -105Q622 -103 620 -102Q619 -101 617 -100Q616 -99 614 -98Q612 -98 611 -97Q609 -96 607 -96Q606 -95 604 -95Q602 -95 600 -95H177Q176 -95 175 -95Q174 -95 174 -95Q173 -95 172 -95Q171 -96 171 -96Q170 -96 169 -96Q168 -96 168 -96Q167 -97 166 -97Q165 -97 165 -97Q164 -98 163 -98Q163 -98 162 -99Q161 -99 160 -100Q160 -100 159 -100Q159 -101 158 -101Q157 -102 157 -102Q156 -103 155 -103Q155 -104 154 -104Q154 -105 153 -105Q153 -106 152 -107Q152 -107 151 -108Q151 -109 150 -109Q150 -110 150 -110Q149 -111 149 -112Q148 -113 148 -113Q148 -114 147 -115Q147 -115 147 -116Q147 -117 146 -118Q146 -118 146 -119Q146 -120 146 -121Q146 -121 145 -122Q145 -123 145 -124Q145 -124 145 -125Q145 -126 145 -127ZM187 -258V-149Q187 -148 187 -147Q187 -146 187 -145Q187 -144 187 -143Q187 -142 187 -141Q187 -141 188 -140Q188 -139 188 -138Q188 -137 189 -136Q189 -135 189 -134Q190 -133 190 -133Q191 -132 191 -131Q191 -130 192 -129Q192 -129 193 -128Q193 -127 194 -126Q195 -125 195 -125Q196 -124 196 -123Q197 -123 198 -122Q198 -121 199 -121Q200 -120 200 -119Q201 -119 202 -118Q203 -118 203 -117Q204 -117 205 -116Q206 -116 207 -115Q207 -115 208 -114Q209 -114 210 -114Q211 -113 212 -113Q213 -113 214 -112Q214 -112 215 -112Q216 -112 217 -112Q218 -111 219 -111Q220 -111 221 -111Q222 -111 223 -111Q224 -111 225 -111H396Q397 -111 398 -111Q399 -111 400 -111Q401 -111 401 -111Q402 -111 403 -112Q404 -112 405 -112Q406 -112 407 -112Q408 -113 409 -113Q410 -113 410 -114Q411 -114 412 -114Q413 -115 414 -115Q415 -116 415 -116Q416 -117 417 -117Q418 -118 419 -118Q419 -119 420 -119Q421 -120 421 -121Q422 -121 423 -122Q423 -123 424 -123Q425 -124 425 -125Q426 -125 426 -126Q427 -127 428 -128Q428 -129 429 -129Q429 -130 429 -131Q430 -132 430 -133Q431 -133 431 -134Q431 -135 432 -136Q432 -137 432 -138Q433 -139 433 -140Q433 -141 433 -141Q433 -142 434 -143Q434 -144 434 -145Q434 -146 434 -147Q434 -148 434 -149V-258Q434 -259 434 -260Q434 -261 434 -262Q434 -263 434 -264Q433 -265 433 -266Q433 -267 433 -268Q433 -269 432 -269Q432 -270 432 -271Q431 -272 431 -273Q431 -274 430 -275Q430 -275 429 -276Q429 -277 429 -278Q428 -279 428 -280Q427 -280 426 -281Q426 -282 425 -283Q425 -283 424 -284Q423 -285 423 -285Q422 -286 421 -287Q421 -287 420 -288Q419 -288 419 -289Q418 -289 417 -290Q416 -291 415 -291Q415 -291 414 -292Q413 -292 412 -293Q411 -293 410 -294Q410 -294 409 -294Q408 -295 407 -295Q406 -295 405 -295Q404 -296 403 -296Q402 -296 401 -296Q401 -296 400 -296Q399 -296 398 -296Q397 -296 396 -296H225Q224 -296 223 -296Q222 -296 221 -296Q220 -296 219 -296Q218 -296 217 -296Q216 -296 215 -295Q214 -295 214 -295Q213 -295 212 -294Q211 -294 210 -294Q209 -293 208 -293Q207 -292 207 -292Q206 -291 205 -291Q204 -291 203 -290Q203 -289 202 -289Q201 -288 200 -288Q200 -287 199 -287Q198 -286 198 -285Q197 -285 196 -284Q196 -283 195 -283Q195 -282 194 -281Q193 -280 193 -280Q192 -279 192 -278Q191 -277 191 -276Q191 -275 190 -275Q190 -274 189 -273Q189 -272 189 -271Q188 -270 188 -269Q188 -269 188 -268Q187 -267 187 -266Q187 -265 187 -264Q187 -263 187 -262Q187 -261 187 -260Q187 -259 187 -258ZM639 -122 714 -215Q716 -218 716 -220Q716 -226 710 -226H664L688 -292Q690 -301 683 -302Q680 -302 677 -299L602 -205Q600 -203 600 -200Q601 -195 606 -194H652L628 -128Q626 -119 633 -118Q637 -118 639 -122ZM258 -271Q269 -271 278 -267Q287 -263 292 -256Q297 -250 297 -240Q297 -232 293 -226Q290 -220 284 -215Q278 -211 271 -207Q280 -204 286 -199Q293 -194 297 -187Q301 -181 301 -172Q301 -161 296 -153Q290 -145 281 -141Q271 -137 258 -137Q245 -137 235 -141Q225 -145 220 -153Q215 -160 215 -171Q215 -180 219 -187Q223 -194 229 -199Q235 -203 243 -207Q236 -210 231 -215Q226 -219 222 -225Q219 -231 219 -240Q219 -249 224 -256Q229 -263 238 -267Q247 -271 258 -271ZM230 -171Q230 -161 237 -155Q244 -148 258 -148Q272 -148 279 -155Q286 -161 286 -172Q286 -178 283 -183Q280 -188 273 -192Q267 -196 259 -199L255 -200Q247 -197 241 -193Q236 -189 233 -184Q230 -178 230 -171ZM258 -258Q247 -258 241 -253Q234 -248 234 -239Q234 -232 237 -227Q240 -223 246 -219Q252 -216 259 -213Q265 -216 271 -219Q276 -223 279 -228Q282 -232 282 -239Q282 -248 275 -253Q269 -258 258 -258ZM405 -204Q405 -188 403 -175Q401 -163 395 -154Q390 -146 382 -141Q374 -137 362 -137Q348 -137 338 -144Q329 -152 324 -167Q319 -182 319 -204Q319 -225 324 -240Q328 -255 337 -263Q347 -271 362 -271Q377 -271 387 -263Q396 -255 401 -240Q405 -225 405 -204ZM334 -204Q334 -185 337 -173Q340 -161 346 -155Q352 -149 362 -149Q372 -149 379 -155Q385 -161 388 -173Q390 -185 390 -204Q390 -222 388 -234Q385 -246 379 -252Q373 -258 362 -258Q352 -258 346 -252Q340 -246 337 -234Q334 -222 334 -204Z" /></svg>
