<?xml version="1.0" encoding="utf-8" ?>
<svg baseProfile="full" height="100%" version="1.1" viewBox="50 0 900 418" width="100%" xmlns="http://www.w3.org/2000/svg" xmlns:ev="http://www.w3.org/2001/xml-events" xmlns:xlink="http://www.w3.org/1999/xlink"><defs /><path d="M441 10 442 11 464 38H735Q766 38 788 60Q811 83 811 114V304Q811 336 788 358Q766 380 735 380H549Q549 396 543 408Q539 414 535 418H735Q782 418 815 385Q849 351 849 304V114Q849 67 815 33Q782 0 735 0H431Q436 4 441 10ZM368 0H164Q117 0 83 33Q50 67 50 114V304Q50 351 83 385Q117 418 164 418H463Q460 416 458 413L432 380H164Q133 380 110 358Q88 336 88 304V114Q88 83 110 60Q133 38 164 38H350Q350 25 356 15Q361 6 368 0ZM887 299Q888 298 890 298Q892 297 893 296Q895 295 897 295Q898 294 900 293Q902 292 903 291Q905 290 906 289Q908 288 909 287Q911 286 912 285Q914 284 915 283Q917 282 918 280Q919 279 921 278Q922 277 923 275Q924 274 926 273Q927 271 928 270Q929 268 930 267Q931 266 933 264Q934 263 935 261Q936 259 937 258Q937 256 938 255Q939 253 940 251Q941 250 942 248Q942 247 943 245Q944 243 944 241Q945 240 946 238Q946 236 947 234Q947 233 947 231Q948 229 948 227Q949 226 949 224Q949 222 949 220Q950 218 950 216Q950 215 950 213Q950 211 950 209Q950 207 950 205Q950 204 950 202Q950 200 949 198Q949 196 949 195Q949 193 948 191Q948 189 947 187Q947 186 947 184Q946 182 946 180Q945 179 944 177Q944 175 943 173Q942 172 942 170Q941 168 940 167Q939 165 938 164Q937 162 937 160Q936 159 935 157Q934 156 933 154Q931 153 930 151Q929 150 928 148Q927 147 926 146Q924 144 923 143Q922 142 921 140Q919 139 918 138Q917 137 915 136Q914 134 912 133Q911 132 909 131Q908 130 906 129Q905 128 903 127Q902 126 900 125Q898 125 897 124Q895 123 893 122Q892 121 890 121Q888 120 887 120ZM328 250V292Q328 292 328 293Q328 294 327 295Q327 295 327 296Q327 297 327 298Q327 298 327 299Q326 300 326 301Q326 301 326 302Q325 303 325 304Q325 304 325 305Q324 306 324 306Q323 307 323 308Q323 309 322 309Q322 310 321 310Q321 311 320 312Q320 312 319 313Q319 313 318 314Q318 315 317 315Q317 316 316 316Q315 317 315 317Q314 317 314 318Q313 318 312 319Q312 319 311 319Q310 320 309 320Q309 321 308 321Q307 321 307 321Q306 322 305 322Q304 322 304 322Q303 322 302 323Q301 323 301 323Q300 323 299 323Q298 323 297 323Q297 323 296 323H177Q176 323 175 323Q174 323 174 323Q173 323 172 323Q171 323 171 323Q170 322 169 322Q168 322 168 322Q167 322 166 321Q165 321 165 321Q164 321 163 320Q163 320 162 319Q161 319 160 319Q160 318 159 318Q159 317 158 317Q157 317 157 316Q156 316 155 315Q155 315 154 314Q154 313 153 313Q153 312 152 312Q152 311 151 310Q151 310 150 309Q150 309 150 308Q149 307 149 306Q148 306 148 305Q148 304 147 304Q147 303 147 302Q147 301 146 301Q146 300 146 299Q146 298 146 298Q146 297 145 296Q145 295 145 295Q145 294 145 293Q145 292 145 292V127Q145 126 145 125Q145 124 145 124Q145 123 145 122Q146 121 146 121Q146 120 146 119Q146 118 146 118Q147 117 147 116Q147 115 147 115Q148 114 148 113Q148 113 149 112Q149 111 150 110Q150 110 150 109Q151 109 151 108Q152 107 152 107Q153 106 153 105Q154 105 154 104Q155 104 155 103Q156 103 157 102Q157 102 158 101Q159 101 159 100Q160 100 160 100Q161 99 162 99Q163 98 163 98Q164 98 165 97Q165 97 166 97Q167 97 168 96Q168 96 169 96Q170 96 171 96Q171 96 172 95Q173 95 174 95Q174 95 175 95Q176 95 177 95H296Q297 95 297 95Q298 95 299 95Q300 95 301 95Q301 96 302 96Q303 96 304 96Q304 96 305 96Q306 97 307 97Q307 97 308 97Q309 98 309 98Q310 98 311 99Q312 99 312 100Q313 100 314 100Q314 101 315 101Q315 102 316 102Q317 103 317 103Q318 104 318 104Q319 105 319 105Q320 106 320 107Q321 107 321 108Q322 109 322 109Q323 110 323 110Q323 111 324 112Q324 113 325 113Q325 114 325 115Q325 115 326 116Q326 117 326 118Q326 118 327 119Q327 120 327 121Q327 121 327 122Q327 123 327 124Q328 124 328 125Q328 126 328 127V144Q299 153 295 187V190V193Q296 210 308 225ZM412 34 561 221Q565 227 565 232Q564 243 553 244H461L510 375Q514 394 499 395Q493 395 487 389L338 202Q334 196 333 191Q334 180 346 179H438L389 47Q385 29 400 28Q406 28 412 34Z" /></svg>
