<?xml version="1.0" encoding="utf-8" ?>
<svg baseProfile="full" height="100%" version="1.1" viewBox="50 0 900 418" width="100%" xmlns="http://www.w3.org/2000/svg" xmlns:ev="http://www.w3.org/2001/xml-events" xmlns:xlink="http://www.w3.org/1999/xlink"><defs /><path d="M164 0Q133 0 107.0 15.5Q81 31 65.5 57.0Q50 83 50 114V304Q50 336 65.5 361.5Q81 387 107.0 402.5Q133 418 164 418H369Q362 413 357 406Q350 394 350 380H164Q132 380 110.0 358.0Q88 336 88 304V114Q88 82 110.0 60.0Q132 38 164 38H432L457 6Q460 3 463 0ZM535 0Q539 4 541 8Q550 21 549 38H735Q766 38 788.5 60.0Q811 82 811 114V304Q811 336 788.5 358.0Q766 380 735 380H464L442 407Q437 414 431 418H735Q766 418 792.0 402.5Q818 387 833.5 361.5Q849 336 849 304V114Q849 83 833.5 57.0Q818 31 792.0 15.5Q766 0 735 0ZM887 120Q915 130 932.5 154.5Q950 179 950 209Q950 239 932.5 264.0Q915 289 887 299ZM177 95H600Q613 95 622.5 104.5Q632 114 632 127V292Q632 305 622.5 314.0Q613 323 600 323H177Q164 323 154.5 314.0Q145 305 145 292V127Q145 114 154.5 104.5Q164 95 177 95ZM412 384 561 197Q565 191 565 186Q565 175 553 175H461L510 43Q513 34 509.0 28.5Q505 23 499 23Q492 23 487 30L338 217Q333 223 333 227Q333 239 346 239H438L389 371Q386 380 389.5 385.5Q393 391 400 391Q407 391 412 384Z" /></svg>
