<?xml version="1.0" encoding="utf-8" ?>
<svg baseProfile="full" height="100%" version="1.1" viewBox="50 -418 900 418" width="100%" xmlns="http://www.w3.org/2000/svg" xmlns:ev="http://www.w3.org/2001/xml-events" xmlns:xlink="http://www.w3.org/1999/xlink"><defs /><path d="M50 -114V-304Q50 -351 83 -385Q117 -418 164 -418H735Q782 -418 815 -385Q849 -351 849 -304V-114Q849 -67 815 -33Q782 0 735 0H164Q117 0 83 -33Q50 -67 50 -114ZM88 -114Q88 -83 110 -60Q133 -38 164 -38H735Q766 -38 788 -60Q811 -83 811 -114V-304Q811 -336 788 -358Q766 -380 735 -380H164Q133 -380 110 -358Q88 -336 88 -304ZM887 -299Q888 -298 890 -298Q892 -297 893 -296Q895 -295 897 -295Q898 -294 900 -293Q902 -292 903 -291Q905 -290 906 -289Q908 -288 909 -287Q911 -286 912 -285Q914 -284 915 -283Q917 -282 918 -280Q919 -279 921 -278Q922 -277 923 -275Q924 -274 926 -273Q927 -271 928 -270Q929 -268 930 -267Q931 -266 933 -264Q934 -263 935 -261Q936 -259 937 -258Q937 -256 938 -255Q939 -253 940 -251Q941 -250 942 -248Q942 -247 943 -245Q944 -243 944 -241Q945 -240 946 -238Q946 -236 947 -234Q947 -233 947 -231Q948 -229 948 -227Q949 -226 949 -224Q949 -222 949 -220Q950 -218 950 -216Q950 -215 950 -213Q950 -211 950 -209Q950 -207 950 -205Q950 -204 950 -202Q950 -200 949 -198Q949 -196 949 -195Q949 -193 948 -191Q948 -189 947 -187Q947 -186 947 -184Q946 -182 946 -180Q945 -179 944 -177Q944 -175 943 -173Q942 -172 942 -170Q941 -168 940 -167Q939 -165 938 -164Q937 -162 937 -160Q936 -159 935 -157Q934 -156 933 -154Q931 -153 930 -151Q929 -150 928 -148Q927 -147 926 -146Q924 -144 923 -143Q922 -142 921 -140Q919 -139 918 -138Q917 -137 915 -136Q914 -134 912 -133Q911 -132 909 -131Q908 -130 906 -129Q905 -128 903 -127Q902 -126 900 -125Q898 -125 897 -124Q895 -123 893 -122Q892 -121 890 -121Q888 -120 887 -120ZM145 -292V-127Q145 -126 145 -125Q145 -124 145 -124Q145 -123 145 -122Q146 -121 146 -121Q146 -120 146 -119Q146 -118 146 -118Q147 -117 147 -116Q147 -115 147 -115Q148 -114 148 -113Q148 -113 149 -112Q149 -111 150 -110Q150 -110 150 -109Q151 -109 151 -108Q152 -107 152 -107Q153 -106 153 -105Q154 -105 154 -104Q155 -104 155 -103Q156 -103 157 -102Q157 -102 158 -101Q159 -101 159 -100Q160 -100 160 -100Q161 -99 162 -99Q163 -98 163 -98Q164 -98 165 -97Q165 -97 166 -97Q167 -97 168 -96Q168 -96 169 -96Q170 -96 171 -96Q171 -96 172 -95Q173 -95 174 -95Q174 -95 175 -95Q176 -95 177 -95H235Q237 -95 239 -95Q241 -96 243 -96Q245 -97 247 -97Q249 -98 251 -99Q253 -100 254 -102Q256 -103 257 -104Q259 -106 260 -107Q261 -109 262 -111H224Q223 -111 223 -111Q222 -111 221 -111Q220 -111 219 -111Q218 -111 217 -112Q216 -112 215 -112Q214 -112 213 -112Q212 -113 212 -113Q211 -113 210 -114Q209 -114 208 -114Q207 -115 206 -115Q206 -116 205 -116Q204 -117 203 -117Q203 -118 202 -118Q201 -119 200 -119Q200 -120 199 -121Q198 -121 198 -122Q197 -123 196 -123Q196 -124 195 -125Q194 -125 194 -126Q193 -127 193 -128Q192 -129 192 -129Q191 -130 191 -131Q190 -132 190 -133Q190 -133 189 -134Q189 -135 189 -136Q188 -137 188 -138Q188 -139 188 -140Q187 -141 187 -141Q187 -142 187 -143Q187 -144 187 -145Q186 -146 186 -147Q186 -148 186 -149V-258Q186 -259 186 -260Q186 -261 187 -262Q187 -263 187 -264Q187 -265 187 -266Q187 -267 188 -268Q188 -269 188 -269Q188 -270 189 -271Q189 -272 189 -273Q190 -274 190 -275Q190 -275 191 -276Q191 -277 192 -278Q192 -279 193 -280Q193 -280 194 -281Q194 -282 195 -283Q196 -283 196 -284Q197 -285 198 -285Q198 -286 199 -287Q200 -287 200 -288Q201 -288 202 -289Q203 -289 203 -290Q204 -291 205 -291Q206 -291 206 -292Q207 -292 208 -293Q209 -293 210 -294Q211 -294 212 -294Q212 -295 213 -295Q214 -295 215 -295Q216 -296 217 -296Q218 -296 219 -296Q220 -296 221 -296Q222 -296 223 -296Q223 -296 224 -296H266Q266 -298 266 -299Q265 -301 265 -302Q265 -303 264 -304Q263 -306 263 -307Q262 -308 261 -309Q260 -311 260 -312Q259 -313 258 -314Q257 -315 256 -316Q255 -317 253 -317Q252 -318 251 -319Q250 -320 249 -320Q247 -321 246 -321Q245 -322 243 -322Q242 -322 241 -323Q239 -323 238 -323Q236 -323 235 -323H177Q176 -323 175 -323Q174 -323 174 -323Q173 -323 172 -323Q171 -323 171 -323Q170 -322 169 -322Q168 -322 168 -322Q167 -322 166 -321Q165 -321 165 -321Q164 -321 163 -320Q163 -320 162 -319Q161 -319 160 -319Q160 -318 159 -318Q159 -317 158 -317Q157 -317 157 -316Q156 -316 155 -315Q155 -315 154 -314Q154 -313 153 -313Q153 -312 152 -312Q152 -311 151 -310Q151 -310 150 -309Q150 -309 150 -308Q149 -307 149 -306Q148 -306 148 -305Q148 -304 147 -304Q147 -303 147 -302Q147 -301 146 -301Q146 -300 146 -299Q146 -298 146 -298Q146 -297 145 -296Q145 -295 145 -295Q145 -294 145 -293Q145 -292 145 -292ZM300 -138H215V-151L250 -186Q259 -196 266 -204Q273 -211 276 -219Q280 -226 280 -235Q280 -246 273 -252Q267 -258 256 -258Q247 -258 239 -255Q232 -251 225 -245L217 -255Q222 -260 228 -263Q234 -267 241 -269Q248 -271 256 -271Q268 -271 277 -266Q285 -262 290 -254Q295 -247 295 -236Q295 -226 291 -217Q287 -208 279 -199Q272 -190 262 -181L234 -153V-152H300ZM405 -204Q405 -188 403 -175Q401 -163 395 -154Q390 -146 382 -141Q374 -137 362 -137Q348 -137 338 -144Q329 -152 324 -167Q319 -182 319 -204Q319 -225 324 -240Q328 -255 337 -263Q347 -271 362 -271Q377 -271 387 -263Q396 -255 401 -240Q405 -225 405 -204ZM334 -204Q334 -185 337 -173Q340 -161 346 -155Q352 -149 362 -149Q372 -149 379 -155Q385 -161 388 -173Q390 -185 390 -204Q390 -222 388 -234Q385 -246 379 -252Q373 -258 362 -258Q352 -258 346 -252Q340 -246 337 -234Q334 -222 334 -204Z" /></svg>
