<?xml version="1.0" encoding="utf-8" ?>
<svg baseProfile="full" height="100%" version="1.1" viewBox="50 -418 900 418" width="100%" xmlns="http://www.w3.org/2000/svg" xmlns:ev="http://www.w3.org/2001/xml-events" xmlns:xlink="http://www.w3.org/1999/xlink"><defs /><path d="M50 -114V-304Q50 -351 83 -385Q117 -418 164 -418H735Q782 -418 815 -385Q849 -351 849 -304V-114Q849 -67 815 -33Q782 0 735 0H164Q117 0 83 -33Q50 -67 50 -114ZM88 -114Q88 -83 110 -60Q133 -38 164 -38H735Q766 -38 788 -60Q811 -83 811 -114V-304Q811 -336 788 -358Q766 -380 735 -380H164Q133 -380 110 -358Q88 -336 88 -304ZM887 -299Q888 -298 890 -298Q892 -297 893 -296Q895 -295 897 -295Q898 -294 900 -293Q902 -292 903 -291Q905 -290 906 -289Q908 -288 909 -287Q911 -286 912 -285Q914 -284 915 -283Q917 -282 918 -280Q919 -279 921 -278Q922 -277 923 -275Q924 -274 926 -273Q927 -271 928 -270Q929 -268 930 -267Q931 -266 933 -264Q934 -263 935 -261Q936 -259 937 -258Q937 -256 938 -255Q939 -253 940 -251Q941 -250 942 -248Q942 -247 943 -245Q944 -243 944 -241Q945 -240 946 -238Q946 -236 947 -234Q947 -233 947 -231Q948 -229 948 -227Q949 -226 949 -224Q949 -222 949 -220Q950 -218 950 -216Q950 -215 950 -213Q950 -211 950 -209Q950 -207 950 -205Q950 -204 950 -202Q950 -200 949 -198Q949 -196 949 -195Q949 -193 948 -191Q948 -189 947 -187Q947 -186 947 -184Q946 -182 946 -180Q945 -179 944 -177Q944 -175 943 -173Q942 -172 942 -170Q941 -168 940 -167Q939 -165 938 -164Q937 -162 937 -160Q936 -159 935 -157Q934 -156 933 -154Q931 -153 930 -151Q929 -150 928 -148Q927 -147 926 -146Q924 -144 923 -143Q922 -142 921 -140Q919 -139 918 -138Q917 -137 915 -136Q914 -134 912 -133Q911 -132 909 -131Q908 -130 906 -129Q905 -128 903 -127Q902 -126 900 -125Q898 -125 897 -124Q895 -123 893 -122Q892 -121 890 -121Q888 -120 887 -120ZM145 -292V-127Q145 -126 145 -125Q145 -124 145 -124Q145 -123 145 -122Q146 -121 146 -121Q146 -120 146 -119Q146 -118 146 -118Q147 -117 147 -116Q147 -115 147 -115Q148 -114 148 -113Q148 -113 149 -112Q149 -111 150 -110Q150 -110 150 -109Q151 -109 151 -108Q152 -107 152 -107Q153 -106 153 -105Q154 -105 154 -104Q155 -104 155 -103Q156 -103 157 -102Q157 -102 158 -101Q159 -101 159 -100Q160 -100 160 -100Q161 -99 162 -99Q163 -98 163 -98Q164 -98 165 -97Q165 -97 166 -97Q167 -97 168 -96Q168 -96 169 -96Q170 -96 171 -96Q171 -96 172 -95Q173 -95 174 -95Q174 -95 175 -95Q176 -95 177 -95H722Q723 -95 723 -95Q724 -95 725 -95Q726 -95 726 -95Q727 -96 728 -96Q729 -96 730 -96Q730 -96 731 -96Q732 -97 733 -97Q733 -97 734 -97Q735 -98 735 -98Q736 -98 737 -99Q737 -99 738 -100Q739 -100 739 -100Q740 -101 741 -101Q741 -102 742 -102Q743 -103 743 -103Q744 -104 744 -104Q745 -105 745 -105Q746 -106 746 -107Q747 -107 747 -108Q748 -109 748 -109Q749 -110 749 -110Q749 -111 750 -112Q750 -113 750 -113Q751 -114 751 -115Q751 -115 752 -116Q752 -117 752 -118Q752 -118 753 -119Q753 -120 753 -121Q753 -121 753 -122Q753 -123 753 -124Q753 -124 753 -125Q754 -126 754 -127V-292Q754 -292 753 -293Q753 -294 753 -295Q753 -295 753 -296Q753 -297 753 -298Q753 -298 753 -299Q752 -300 752 -301Q752 -301 752 -302Q751 -303 751 -304Q751 -304 750 -305Q750 -306 750 -306Q749 -307 749 -308Q749 -309 748 -309Q748 -310 747 -310Q747 -311 746 -312Q746 -312 745 -313Q745 -313 744 -314Q744 -315 743 -315Q743 -316 742 -316Q741 -317 741 -317Q740 -317 739 -318Q739 -318 738 -319Q737 -319 737 -319Q736 -320 735 -320Q735 -321 734 -321Q733 -321 733 -321Q732 -322 731 -322Q730 -322 730 -322Q729 -322 728 -323Q727 -323 726 -323Q726 -323 725 -323Q724 -323 723 -323Q723 -323 722 -323H177Q176 -323 175 -323Q174 -323 174 -323Q173 -323 172 -323Q171 -323 171 -323Q170 -322 169 -322Q168 -322 168 -322Q167 -322 166 -321Q165 -321 165 -321Q164 -321 163 -320Q163 -320 162 -319Q161 -319 160 -319Q160 -318 159 -318Q159 -317 158 -317Q157 -317 157 -316Q156 -316 155 -315Q155 -315 154 -314Q154 -313 153 -313Q153 -312 152 -312Q152 -311 151 -310Q151 -310 150 -309Q150 -309 150 -308Q149 -307 149 -306Q148 -306 148 -305Q148 -304 147 -304Q147 -303 147 -302Q147 -301 146 -301Q146 -300 146 -299Q146 -298 146 -298Q146 -297 145 -296Q145 -295 145 -295Q145 -294 145 -293Q145 -292 145 -292ZM189 -258V-149Q189 -148 189 -147Q189 -146 189 -145Q189 -144 189 -143Q190 -142 190 -141Q190 -141 190 -140Q190 -139 191 -138Q191 -137 191 -136Q192 -135 192 -134Q192 -133 193 -133Q193 -132 194 -131Q194 -130 194 -129Q195 -129 195 -128Q196 -127 197 -126Q197 -125 198 -125Q198 -124 199 -123Q200 -123 200 -122Q201 -121 202 -121Q202 -120 203 -119Q204 -119 204 -118Q205 -118 206 -117Q207 -117 208 -116Q208 -116 209 -115Q210 -115 211 -114Q212 -114 212 -114Q213 -113 214 -113Q215 -113 216 -112Q217 -112 218 -112Q219 -112 220 -112Q221 -111 221 -111Q222 -111 223 -111Q224 -111 225 -111Q226 -111 227 -111H505Q506 -111 507 -111Q508 -111 509 -111Q510 -111 511 -111Q512 -111 513 -112Q513 -112 514 -112Q515 -112 516 -112Q517 -113 518 -113Q519 -113 520 -114Q521 -114 521 -114Q522 -115 523 -115Q524 -116 525 -116Q525 -117 526 -117Q527 -118 528 -118Q529 -119 529 -119Q530 -120 531 -121Q531 -121 532 -122Q533 -123 533 -123Q534 -124 535 -125Q535 -125 536 -126Q536 -127 537 -128Q537 -129 538 -129Q538 -130 539 -131Q539 -132 539 -133Q540 -133 540 -134Q541 -135 541 -136Q541 -137 541 -138Q542 -139 542 -140Q542 -141 542 -141Q543 -142 543 -143Q543 -144 543 -145Q543 -146 543 -147Q543 -148 543 -149V-258Q543 -259 543 -260Q543 -261 543 -262Q543 -263 543 -264Q543 -265 542 -266Q542 -267 542 -268Q542 -269 541 -269Q541 -270 541 -271Q541 -272 540 -273Q540 -274 539 -275Q539 -275 539 -276Q538 -277 538 -278Q537 -279 537 -280Q536 -280 536 -281Q535 -282 535 -283Q534 -283 533 -284Q533 -285 532 -285Q531 -286 531 -287Q530 -287 529 -288Q529 -288 528 -289Q527 -289 526 -290Q525 -291 525 -291Q524 -291 523 -292Q522 -292 521 -293Q521 -293 520 -294Q519 -294 518 -294Q517 -295 516 -295Q515 -295 514 -295Q513 -296 513 -296Q512 -296 511 -296Q510 -296 509 -296Q508 -296 507 -296Q506 -296 505 -296H227Q226 -296 225 -296Q224 -296 223 -296Q222 -296 221 -296Q221 -296 220 -296Q219 -296 218 -295Q217 -295 216 -295Q215 -295 214 -294Q213 -294 212 -294Q212 -293 211 -293Q210 -292 209 -292Q208 -291 208 -291Q207 -291 206 -290Q205 -289 204 -289Q204 -288 203 -288Q202 -287 202 -287Q201 -286 200 -285Q200 -285 199 -284Q198 -283 198 -283Q197 -282 197 -281Q196 -280 195 -280Q195 -279 194 -278Q194 -277 194 -276Q193 -275 193 -275Q192 -274 192 -273Q192 -272 191 -271Q191 -270 191 -269Q190 -269 190 -268Q190 -267 190 -266Q190 -265 189 -264Q189 -263 189 -262Q189 -261 189 -260Q189 -259 189 -258ZM270 -138H256V-231Q256 -236 256 -240Q256 -244 256 -247Q256 -250 256 -253Q253 -250 251 -248Q249 -246 245 -243L230 -231L222 -241L258 -269H270ZM405 -204Q405 -188 403 -175Q401 -163 395 -154Q390 -146 382 -141Q374 -137 362 -137Q348 -137 338 -144Q329 -152 324 -167Q319 -182 319 -204Q319 -225 324 -240Q328 -255 337 -263Q347 -271 362 -271Q377 -271 387 -263Q396 -255 401 -240Q405 -225 405 -204ZM334 -204Q334 -185 337 -173Q340 -161 346 -155Q352 -149 362 -149Q372 -149 379 -155Q385 -161 388 -173Q390 -185 390 -204Q390 -222 388 -234Q385 -246 379 -252Q373 -258 362 -258Q352 -258 346 -252Q340 -246 337 -234Q334 -222 334 -204ZM510 -204Q510 -188 507 -175Q505 -163 500 -154Q495 -146 486 -141Q478 -137 467 -137Q452 -137 443 -144Q433 -152 429 -167Q424 -182 424 -204Q424 -225 428 -240Q432 -255 442 -263Q451 -271 467 -271Q481 -271 491 -263Q500 -255 505 -240Q510 -225 510 -204ZM439 -204Q439 -185 441 -173Q444 -161 450 -155Q457 -149 467 -149Q477 -149 483 -155Q489 -161 492 -173Q495 -185 495 -204Q495 -222 492 -234Q489 -246 483 -252Q477 -258 467 -258Q456 -258 450 -252Q444 -246 441 -234Q439 -222 439 -204Z" /></svg>
