<?xml version="1.0" encoding="utf-8" ?>
<svg baseProfile="full" height="100%" version="1.1" viewBox="50 0 900 418" width="100%" xmlns="http://www.w3.org/2000/svg" xmlns:ev="http://www.w3.org/2001/xml-events" xmlns:xlink="http://www.w3.org/1999/xlink"><defs /><path d="M441 10 442 11 464 38H735Q766 38 788 60Q811 83 811 114V304Q811 336 788 358Q766 380 735 380H549Q549 396 543 408Q539 414 535 418H735Q782 418 815 385Q849 351 849 304V114Q849 67 815 33Q782 0 735 0H431Q436 4 441 10ZM368 0H164Q117 0 83 33Q50 67 50 114V304Q50 351 83 385Q117 418 164 418H463Q460 416 458 413L432 380H164Q133 380 110 358Q88 336 88 304V114Q88 83 110 60Q133 38 164 38H350Q350 25 356 15Q361 6 368 0ZM887 299Q888 298 890 298Q892 297 893 296Q895 295 897 295Q898 294 900 293Q902 292 903 291Q905 290 906 289Q908 288 909 287Q911 286 912 285Q914 284 915 283Q917 282 918 280Q919 279 921 278Q922 277 923 275Q924 274 926 273Q927 271 928 270Q929 268 930 267Q931 266 933 264Q934 263 935 261Q936 259 937 258Q937 256 938 255Q939 253 940 251Q941 250 942 248Q942 247 943 245Q944 243 944 241Q945 240 946 238Q946 236 947 234Q947 233 947 231Q948 229 948 227Q949 226 949 224Q949 222 949 220Q950 218 950 216Q950 215 950 213Q950 211 950 209Q950 207 950 205Q950 204 950 202Q950 200 949 198Q949 196 949 195Q949 193 948 191Q948 189 947 187Q947 186 947 184Q946 182 946 180Q945 179 944 177Q944 175 943 173Q942 172 942 170Q941 168 940 167Q939 165 938 164Q937 162 937 160Q936 159 935 157Q934 156 933 154Q931 153 930 151Q929 150 928 148Q927 147 926 146Q924 144 923 143Q922 142 921 140Q919 139 918 138Q917 137 915 136Q914 134 912 133Q911 132 909 131Q908 130 906 129Q905 128 903 127Q902 126 900 125Q898 125 897 124Q895 123 893 122Q892 121 890 121Q888 120 887 120ZM509 95H722Q723 95 723 95Q724 95 725 95Q726 95 726 95Q727 96 728 96Q729 96 730 96Q730 96 731 96Q732 97 733 97Q733 97 734 97Q735 98 735 98Q736 98 737 99Q737 99 738 100Q739 100 739 100Q740 101 741 101Q741 102 742 102Q743 103 743 103Q744 104 744 104Q745 105 745 105Q746 106 746 107Q747 107 747 108Q748 109 748 109Q749 110 749 110Q749 111 750 112Q750 113 750 113Q751 114 751 115Q751 115 752 116Q752 117 752 118Q752 118 753 119Q753 120 753 121Q753 121 753 122Q753 123 753 124Q753 124 753 125Q754 126 754 127V292Q754 292 753 293Q753 294 753 295Q753 295 753 296Q753 297 753 298Q753 298 753 299Q752 300 752 301Q752 301 752 302Q751 303 751 304Q751 304 750 305Q750 306 750 306Q749 307 749 308Q749 309 748 309Q748 310 747 310Q747 311 746 312Q746 312 745 313Q745 313 744 314Q744 315 743 315Q743 316 742 316Q741 317 741 317Q740 317 739 318Q739 318 738 319Q737 319 737 319Q736 320 735 320Q735 321 734 321Q733 321 733 321Q732 322 731 322Q730 322 730 322Q729 322 728 323Q727 323 726 323Q726 323 725 323Q724 323 723 323Q723 323 722 323H531L516 282H554H556Q599 278 603 235V233V231Q603 214 591 198ZM386 323H177Q176 323 175 323Q174 323 174 323Q173 323 172 323Q171 323 171 323Q170 322 169 322Q168 322 168 322Q167 322 166 321Q165 321 165 321Q164 321 163 320Q163 320 162 319Q161 319 160 319Q160 318 159 318Q159 317 158 317Q157 317 157 316Q156 316 155 315Q155 315 154 314Q154 313 153 313Q153 312 152 312Q152 311 151 310Q151 310 150 309Q150 309 150 308Q149 307 149 306Q148 306 148 305Q148 304 147 304Q147 303 147 302Q147 301 146 301Q146 300 146 299Q146 298 146 298Q146 297 145 296Q145 295 145 295Q145 294 145 293Q145 292 145 292V127Q145 126 145 125Q145 124 145 124Q145 123 145 122Q146 121 146 121Q146 120 146 119Q146 118 146 118Q147 117 147 116Q147 115 147 115Q148 114 148 113Q148 113 149 112Q149 111 150 110Q150 110 150 109Q151 109 151 108Q152 107 152 107Q153 106 153 105Q154 105 154 104Q155 104 155 103Q156 103 157 102Q157 102 158 101Q159 101 159 100Q160 100 160 100Q161 99 162 99Q163 98 163 98Q164 98 165 97Q165 97 166 97Q167 97 168 96Q168 96 169 96Q170 96 171 96Q171 96 172 95Q173 95 174 95Q174 95 175 95Q176 95 177 95H366L383 141H344H343Q300 144 295 187V190V193Q296 210 308 225ZM412 34 561 221Q565 227 565 232Q564 243 553 244H461L510 375Q514 394 499 395Q493 395 487 389L338 202Q334 196 333 191Q334 180 346 179H438L389 47Q385 29 400 28Q406 28 412 34Z" /></svg>
