<?xml version="1.0" encoding="utf-8" ?>
<svg baseProfile="full" height="100%" version="1.1" viewBox="50 -418 900 418" width="100%" xmlns="http://www.w3.org/2000/svg" xmlns:ev="http://www.w3.org/2001/xml-events" xmlns:xlink="http://www.w3.org/1999/xlink"><defs /><path d="M50 -114V-304Q50 -351 83 -385Q117 -418 164 -418H735Q782 -418 815 -385Q849 -351 849 -304V-114Q849 -67 815 -33Q782 0 735 0H164Q117 0 83 -33Q50 -67 50 -114ZM88 -114Q88 -83 110 -60Q133 -38 164 -38H735Q766 -38 788 -60Q811 -83 811 -114V-304Q811 -336 788 -358Q766 -380 735 -380H164Q133 -380 110 -358Q88 -336 88 -304ZM887 -299Q888 -298 890 -298Q892 -297 893 -296Q895 -295 897 -295Q898 -294 900 -293Q902 -292 903 -291Q905 -290 906 -289Q908 -288 909 -287Q911 -286 912 -285Q914 -284 915 -283Q917 -282 918 -280Q919 -279 921 -278Q922 -277 923 -275Q924 -274 926 -273Q927 -271 928 -270Q929 -268 930 -267Q931 -266 933 -264Q934 -263 935 -261Q936 -259 937 -258Q937 -256 938 -255Q939 -253 940 -251Q941 -250 942 -248Q942 -247 943 -245Q944 -243 944 -241Q945 -240 946 -238Q946 -236 947 -234Q947 -233 947 -231Q948 -229 948 -227Q949 -226 949 -224Q949 -222 949 -220Q950 -218 950 -216Q950 -215 950 -213Q950 -211 950 -209Q950 -207 950 -205Q950 -204 950 -202Q950 -200 949 -198Q949 -196 949 -195Q949 -193 948 -191Q948 -189 947 -187Q947 -186 947 -184Q946 -182 946 -180Q945 -179 944 -177Q944 -175 943 -173Q942 -172 942 -170Q941 -168 940 -167Q939 -165 938 -164Q937 -162 937 -160Q936 -159 935 -157Q934 -156 933 -154Q931 -153 930 -151Q929 -150 928 -148Q927 -147 926 -146Q924 -144 923 -143Q922 -142 921 -140Q919 -139 918 -138Q917 -137 915 -136Q914 -134 912 -133Q911 -132 909 -131Q908 -130 906 -129Q905 -128 903 -127Q902 -126 900 -125Q898 -125 897 -124Q895 -123 893 -122Q892 -121 890 -121Q888 -120 887 -120ZM145 -292V-127Q145 -126 145 -125Q145 -124 145 -124Q145 -123 145 -122Q146 -121 146 -121Q146 -120 146 -119Q146 -118 146 -118Q147 -117 147 -116Q147 -115 147 -115Q148 -114 148 -113Q148 -113 149 -112Q149 -111 150 -110Q150 -110 150 -109Q151 -109 151 -108Q152 -107 152 -107Q153 -106 153 -105Q154 -105 154 -104Q155 -104 155 -103Q156 -103 157 -102Q157 -102 158 -101Q159 -101 159 -100Q160 -100 160 -100Q161 -99 162 -99Q163 -98 163 -98Q164 -98 165 -97Q165 -97 166 -97Q167 -97 168 -96Q168 -96 169 -96Q170 -96 171 -96Q171 -96 172 -95Q173 -95 174 -95Q174 -95 175 -95Q176 -95 177 -95H478Q479 -95 480 -95Q481 -95 482 -95Q482 -95 483 -95Q484 -96 485 -96Q485 -96 486 -96Q487 -96 488 -96Q488 -97 489 -97Q490 -97 491 -97Q491 -98 492 -98Q493 -98 493 -99Q494 -99 495 -100Q495 -100 496 -100Q497 -101 497 -101Q498 -102 499 -102Q499 -103 500 -103Q500 -104 501 -104Q501 -105 502 -105Q502 -106 503 -107Q503 -107 504 -108Q504 -109 505 -109Q505 -110 506 -110Q506 -111 506 -112Q507 -113 507 -113Q507 -114 508 -115Q508 -115 508 -116Q509 -117 509 -118Q509 -118 509 -119Q509 -120 510 -121Q510 -121 510 -122Q510 -123 510 -124Q510 -124 510 -125Q510 -126 510 -127V-292Q510 -292 510 -293Q510 -294 510 -295Q510 -295 510 -296Q510 -297 510 -298Q509 -298 509 -299Q509 -300 509 -301Q509 -301 508 -302Q508 -303 508 -304Q507 -304 507 -305Q507 -306 506 -306Q506 -307 506 -308Q505 -309 505 -309Q504 -310 504 -310Q503 -311 503 -312Q502 -312 502 -313Q501 -313 501 -314Q500 -315 500 -315Q499 -316 499 -316Q498 -317 497 -317Q497 -317 496 -318Q495 -318 495 -319Q494 -319 493 -319Q493 -320 492 -320Q491 -321 491 -321Q490 -321 489 -321Q488 -322 488 -322Q487 -322 486 -322Q485 -322 485 -323Q484 -323 483 -323Q482 -323 482 -323Q481 -323 480 -323Q479 -323 478 -323H177Q176 -323 175 -323Q174 -323 174 -323Q173 -323 172 -323Q171 -323 171 -323Q170 -322 169 -322Q168 -322 168 -322Q167 -322 166 -321Q165 -321 165 -321Q164 -321 163 -320Q163 -320 162 -319Q161 -319 160 -319Q160 -318 159 -318Q159 -317 158 -317Q157 -317 157 -316Q156 -316 155 -315Q155 -315 154 -314Q154 -313 153 -313Q153 -312 152 -312Q152 -311 151 -310Q151 -310 150 -309Q150 -309 150 -308Q149 -307 149 -306Q148 -306 148 -305Q148 -304 147 -304Q147 -303 147 -302Q147 -301 146 -301Q146 -300 146 -299Q146 -298 146 -298Q146 -297 145 -296Q145 -295 145 -295Q145 -294 145 -293Q145 -292 145 -292ZM188 -258V-149Q188 -148 188 -147Q188 -146 188 -145Q188 -144 188 -143Q188 -142 189 -141Q189 -141 189 -140Q189 -139 189 -138Q190 -137 190 -136Q190 -135 191 -134Q191 -133 191 -133Q192 -132 192 -131Q193 -130 193 -129Q194 -129 194 -128Q195 -127 195 -126Q196 -125 196 -125Q197 -124 198 -123Q198 -123 199 -122Q200 -121 200 -121Q201 -120 202 -119Q202 -119 203 -118Q204 -118 205 -117Q205 -117 206 -116Q207 -116 208 -115Q209 -115 210 -114Q210 -114 211 -114Q212 -113 213 -113Q214 -113 215 -112Q216 -112 217 -112Q217 -112 218 -112Q219 -111 220 -111Q221 -111 222 -111Q223 -111 224 -111Q225 -111 226 -111H396Q397 -111 398 -111Q399 -111 400 -111Q400 -111 401 -111Q402 -111 403 -112Q404 -112 405 -112Q406 -112 407 -112Q408 -113 409 -113Q410 -113 410 -114Q411 -114 412 -114Q413 -115 414 -115Q415 -116 415 -116Q416 -117 417 -117Q418 -118 418 -118Q419 -119 420 -119Q421 -120 421 -121Q422 -121 423 -122Q423 -123 424 -123Q425 -124 425 -125Q426 -125 426 -126Q427 -127 427 -128Q428 -129 428 -129Q429 -130 429 -131Q430 -132 430 -133Q431 -133 431 -134Q431 -135 432 -136Q432 -137 432 -138Q432 -139 433 -140Q433 -141 433 -141Q433 -142 433 -143Q434 -144 434 -145Q434 -146 434 -147Q434 -148 434 -149V-258Q434 -259 434 -260Q434 -261 434 -262Q434 -263 433 -264Q433 -265 433 -266Q433 -267 433 -268Q432 -269 432 -269Q432 -270 432 -271Q431 -272 431 -273Q431 -274 430 -275Q430 -275 429 -276Q429 -277 428 -278Q428 -279 427 -280Q427 -280 426 -281Q426 -282 425 -283Q425 -283 424 -284Q423 -285 423 -285Q422 -286 421 -287Q421 -287 420 -288Q419 -288 418 -289Q418 -289 417 -290Q416 -291 415 -291Q415 -291 414 -292Q413 -292 412 -293Q411 -293 410 -294Q410 -294 409 -294Q408 -295 407 -295Q406 -295 405 -295Q404 -296 403 -296Q402 -296 401 -296Q400 -296 400 -296Q399 -296 398 -296Q397 -296 396 -296H226Q225 -296 224 -296Q223 -296 222 -296Q221 -296 220 -296Q219 -296 218 -296Q217 -296 217 -295Q216 -295 215 -295Q214 -295 213 -294Q212 -294 211 -294Q210 -293 210 -293Q209 -292 208 -292Q207 -291 206 -291Q205 -291 205 -290Q204 -289 203 -289Q202 -288 202 -288Q201 -287 200 -287Q200 -286 199 -285Q198 -285 198 -284Q197 -283 196 -283Q196 -282 195 -281Q195 -280 194 -280Q194 -279 193 -278Q193 -277 192 -276Q192 -275 191 -275Q191 -274 191 -273Q190 -272 190 -271Q190 -270 189 -269Q189 -269 189 -268Q189 -267 189 -266Q188 -265 188 -264Q188 -263 188 -262Q188 -261 188 -260Q188 -259 188 -258ZM216 -194Q216 -206 218 -217Q220 -228 223 -238Q227 -248 234 -255Q241 -262 251 -266Q261 -271 275 -271Q279 -271 284 -270Q289 -270 292 -269V-256Q288 -257 284 -258Q280 -258 276 -258Q259 -258 250 -251Q240 -244 236 -232Q232 -219 231 -204H232Q235 -208 239 -212Q243 -215 249 -218Q256 -220 264 -220Q275 -220 284 -215Q292 -210 297 -202Q301 -193 301 -180Q301 -167 296 -157Q291 -147 282 -142Q273 -137 260 -137Q251 -137 243 -140Q235 -144 229 -151Q223 -158 220 -169Q216 -180 216 -194ZM260 -149Q272 -149 280 -157Q287 -165 287 -180Q287 -193 280 -201Q274 -208 261 -208Q252 -208 245 -204Q239 -201 235 -195Q231 -189 231 -184Q231 -178 233 -172Q235 -166 238 -160Q242 -155 247 -152Q253 -149 260 -149ZM405 -204Q405 -188 403 -175Q401 -163 395 -154Q390 -146 382 -141Q374 -137 362 -137Q348 -137 338 -144Q329 -152 324 -167Q319 -182 319 -204Q319 -225 324 -240Q328 -255 337 -263Q347 -271 362 -271Q377 -271 387 -263Q396 -255 401 -240Q405 -225 405 -204ZM334 -204Q334 -185 337 -173Q340 -161 346 -155Q352 -149 362 -149Q372 -149 379 -155Q385 -161 388 -173Q390 -185 390 -204Q390 -222 388 -234Q385 -246 379 -252Q373 -258 362 -258Q352 -258 346 -252Q340 -246 337 -234Q334 -222 334 -204Z" /></svg>
