<?xml version="1.0" encoding="utf-8" ?>
<svg baseProfile="full" height="100%" version="1.1" viewBox="50 -418 900 418" width="100%" xmlns="http://www.w3.org/2000/svg" xmlns:ev="http://www.w3.org/2001/xml-events" xmlns:xlink="http://www.w3.org/1999/xlink"><defs /><path d="M50 -114V-304Q50 -351 83 -385Q117 -418 164 -418H735Q782 -418 815 -385Q849 -351 849 -304V-114Q849 -67 815 -33Q782 0 735 0H164Q117 0 83 -33Q50 -67 50 -114ZM88 -114Q88 -83 110 -60Q133 -38 164 -38H735Q766 -38 788 -60Q811 -83 811 -114V-304Q811 -336 788 -358Q766 -380 735 -380H164Q133 -380 110 -358Q88 -336 88 -304ZM887 -299Q888 -298 890 -298Q892 -297 893 -296Q895 -295 897 -295Q898 -294 900 -293Q902 -292 903 -291Q905 -290 906 -289Q908 -288 909 -287Q911 -286 912 -285Q914 -284 915 -283Q917 -282 918 -280Q919 -279 921 -278Q922 -277 923 -275Q924 -274 926 -273Q927 -271 928 -270Q929 -268 930 -267Q931 -266 933 -264Q934 -263 935 -261Q936 -259 937 -258Q937 -256 938 -255Q939 -253 940 -251Q941 -250 942 -248Q942 -247 943 -245Q944 -243 944 -241Q945 -240 946 -238Q946 -236 947 -234Q947 -233 947 -231Q948 -229 948 -227Q949 -226 949 -224Q949 -222 949 -220Q950 -218 950 -216Q950 -215 950 -213Q950 -211 950 -209Q950 -207 950 -205Q950 -204 950 -202Q950 -200 949 -198Q949 -196 949 -195Q949 -193 948 -191Q948 -189 947 -187Q947 -186 947 -184Q946 -182 946 -180Q945 -179 944 -177Q944 -175 943 -173Q942 -172 942 -170Q941 -168 940 -167Q939 -165 938 -164Q937 -162 937 -160Q936 -159 935 -157Q934 -156 933 -154Q931 -153 930 -151Q929 -150 928 -148Q927 -147 926 -146Q924 -144 923 -143Q922 -142 921 -140Q919 -139 918 -138Q917 -137 915 -136Q914 -134 912 -133Q911 -132 909 -131Q908 -130 906 -129Q905 -128 903 -127Q902 -126 900 -125Q898 -125 897 -124Q895 -123 893 -122Q892 -121 890 -121Q888 -120 887 -120ZM145 -127V-292Q145 -292 145 -293Q145 -294 145 -295Q145 -295 145 -296Q146 -297 146 -298Q146 -298 146 -299Q146 -300 146 -301Q147 -301 147 -302Q147 -303 147 -304Q148 -304 148 -305Q148 -306 149 -306Q149 -307 150 -308Q150 -309 150 -309Q151 -310 151 -310Q152 -311 152 -312Q153 -312 153 -313Q154 -313 154 -314Q155 -315 155 -315Q156 -316 157 -316Q157 -317 158 -317Q159 -317 159 -318Q160 -318 160 -319Q161 -319 162 -319Q163 -320 163 -320Q164 -321 165 -321Q165 -321 166 -321Q167 -322 168 -322Q168 -322 169 -322Q170 -322 171 -323Q171 -323 172 -323Q173 -323 174 -323Q174 -323 175 -323Q176 -323 177 -323H722Q723 -323 723 -323Q724 -323 725 -323Q726 -323 726 -323Q727 -323 728 -323Q729 -322 730 -322Q730 -322 731 -322Q732 -322 733 -321Q733 -321 734 -321Q735 -321 735 -320Q736 -320 737 -319Q737 -319 738 -319Q739 -318 739 -318Q740 -317 741 -317Q741 -317 742 -316Q743 -316 743 -315Q744 -315 744 -314Q745 -313 745 -313Q746 -312 746 -312Q747 -311 747 -310Q748 -310 748 -309Q749 -309 749 -308Q749 -307 750 -306Q750 -306 750 -305Q751 -304 751 -304Q751 -303 752 -302Q752 -301 752 -301Q752 -300 753 -299Q753 -298 753 -298Q753 -297 753 -296Q753 -295 753 -295Q753 -294 753 -293Q754 -292 754 -292V-127Q754 -126 753 -125Q753 -124 753 -124Q753 -123 753 -122Q753 -121 753 -121Q753 -120 753 -119Q752 -118 752 -118Q752 -117 752 -116Q751 -115 751 -115Q751 -114 750 -113Q750 -113 750 -112Q749 -111 749 -110Q749 -110 748 -109Q748 -109 747 -108Q747 -107 746 -107Q746 -106 745 -105Q745 -105 744 -104Q744 -104 743 -103Q743 -103 742 -102Q741 -102 741 -101Q740 -101 739 -100Q739 -100 738 -100Q737 -99 737 -99Q736 -98 735 -98Q735 -98 734 -97Q733 -97 733 -97Q732 -97 731 -96Q730 -96 730 -96Q729 -96 728 -96Q727 -96 726 -95Q726 -95 725 -95Q724 -95 723 -95Q723 -95 722 -95H177Q176 -95 175 -95Q174 -95 174 -95Q173 -95 172 -95Q171 -96 171 -96Q170 -96 169 -96Q168 -96 168 -96Q167 -97 166 -97Q165 -97 165 -97Q164 -98 163 -98Q163 -98 162 -99Q161 -99 160 -100Q160 -100 159 -100Q159 -101 158 -101Q157 -102 157 -102Q156 -103 155 -103Q155 -104 154 -104Q154 -105 153 -105Q153 -106 152 -107Q152 -107 151 -108Q151 -109 150 -109Q150 -110 150 -110Q149 -111 149 -112Q148 -113 148 -113Q148 -114 147 -115Q147 -115 147 -116Q147 -117 146 -118Q146 -118 146 -119Q146 -120 146 -121Q146 -121 145 -122Q145 -123 145 -124Q145 -124 145 -125Q145 -126 145 -127Z" /></svg>
